<svg id="Capa_1" data-name="Capa 1" xmlns="http://www.w3.org/2000/svg" viewBox="0 0 733.46 331.48"><defs><style>.cls-1{fill:#222220;}.cls-2{fill:#ae0f3a;fill-rule:evenodd;}</style></defs><title>Mesa de trabajo 3</title><path class="cls-1" d="M363.26,128a22,22,0,0,1-9.73,2.4q-8.25,0-13.42-5.22t-5.21-13.45a19.19,19.19,0,0,1,4.84-13.44c3.18-3.55,7.51-5.29,12.91-5.29a26,26,0,0,1,10.5,2.42l-2.2,5.42a21.08,21.08,0,0,0-8.38-2.07,9.4,9.4,0,0,0-7.88,3.76,13.44,13.44,0,0,0-2.65,8.55c0,4.06,1,7.27,3.08,9.71,2.22,2.52,5.27,3.82,9.26,3.82a16.29,16.29,0,0,0,7.17-1.71Z"/><path class="cls-1" d="M388,128.41a40.45,40.45,0,0,1-11.33,2.06,16.8,16.8,0,0,1-7.87-1.68,6.94,6.94,0,0,1-4-6.4,7.07,7.07,0,0,1,4.27-6.75,46.78,46.78,0,0,1,8-2.25c2.82-.62,4.24-1.5,4.24-2.67,0-1.61-1.5-2.46-4.47-2.46a18.59,18.59,0,0,0-7.39,1.6L367.23,105a25.09,25.09,0,0,1,10.46-2.3,11.17,11.17,0,0,1,7.1,2,7.94,7.94,0,0,1,2.87,6.64v13.68a25.35,25.35,0,0,0,.35,3.34m-6.64-4a7.58,7.58,0,0,1-.11-1v-6.54a7.65,7.65,0,0,1-3.4,1.38,28.58,28.58,0,0,0-4.1,1.12,2.81,2.81,0,0,0-2,2.55c0,2.16,1.65,3.23,4.94,3.23a15.72,15.72,0,0,0,4.63-.72m.79-29.76a2.15,2.15,0,0,1-1,1.84l-6.49,4.36-2.28-2.66,5.18-5.67a2.21,2.21,0,0,1,1.73-.81,3.07,3.07,0,0,1,2.87,2.94"/><path class="cls-1" d="M429.61,129.86h-6.38V113.2q0-4.87-4.61-4.88a10.73,10.73,0,0,0-4.8,1.31,17.39,17.39,0,0,1,.22,3.14v17.09h-6.39v-16.7c0-3.23-1.5-4.84-4.53-4.84a11.26,11.26,0,0,0-4.77,1.12,10.74,10.74,0,0,1,.12,1.16v19.26h-6.36v-21a26.86,26.86,0,0,0-.34-3.46,34.4,34.4,0,0,1,12-2.68c3.68,0,6.31.84,7.9,2.46a18.27,18.27,0,0,1,8.87-2.46,9,9,0,0,1,6.69,2.43,9.19,9.19,0,0,1,2.41,6.76Z"/><path class="cls-1" d="M455.52,128.41a40.16,40.16,0,0,1-11.32,2.06,16.61,16.61,0,0,1-7.83-1.68,7,7,0,0,1-4.07-6.4,7.1,7.1,0,0,1,4.27-6.75,47.08,47.08,0,0,1,8-2.25c2.84-.61,4.25-1.5,4.25-2.67,0-1.61-1.48-2.46-4.44-2.46a18.54,18.54,0,0,0-7.41,1.6L434.77,105a25,25,0,0,1,10.46-2.3,11.25,11.25,0,0,1,7.1,2,8,8,0,0,1,2.86,6.64v13.68a24.36,24.36,0,0,0,.33,3.34m-6.63-4a9.12,9.12,0,0,1-.1-1v-6.54a7.6,7.6,0,0,1-3.4,1.38,27.62,27.62,0,0,0-4.08,1.12,2.82,2.82,0,0,0-2,2.55c0,2.16,1.65,3.23,4.94,3.23a15.09,15.09,0,0,0,4.62-.72"/><path class="cls-1" d="M476.3,103.32l-1.89,5.47a11.28,11.28,0,0,0-3.51-.53,16.44,16.44,0,0,0-4.76.68c0,.24,0,.44,0,.54v20.38h-6.38V109.63a24.58,24.58,0,0,0-.49-4c4.68-1.92,8.73-2.92,12.15-2.92a20,20,0,0,1,4.85.6"/><path class="cls-1" d="M497.41,128.41a40.33,40.33,0,0,1-11.32,2.06,16.83,16.83,0,0,1-7.87-1.68,6.93,6.93,0,0,1-4-6.4,7,7,0,0,1,4.26-6.75,46.55,46.55,0,0,1,8-2.25c2.81-.61,4.23-1.5,4.23-2.67,0-1.61-1.49-2.46-4.46-2.46a18.46,18.46,0,0,0-7.37,1.6L476.63,105a24.94,24.94,0,0,1,10.46-2.3,11.37,11.37,0,0,1,7.14,2,8,8,0,0,1,2.82,6.64v13.68a24.15,24.15,0,0,0,.36,3.34m-6.63-4a6.81,6.81,0,0,1-.13-1v-6.54a7.33,7.33,0,0,1-3.38,1.38,27.27,27.27,0,0,0-4.11,1.12,2.85,2.85,0,0,0-2,2.55c0,2.16,1.67,3.23,5,3.23a15.56,15.56,0,0,0,4.61-.72"/><path class="cls-1" d="M359.44,177.09a29.39,29.39,0,0,1-10.27,2,14.24,14.24,0,0,1-10.42-4,13.78,13.78,0,0,1-4.09-10.29,14.23,14.23,0,0,1,3.07-9.33,11.11,11.11,0,0,1,9.09-4.12,12.51,12.51,0,0,1,5.95,1.46V139.48h6.38v34.09c0,.69.11,1.87.29,3.52m-6.54-4a9.15,9.15,0,0,1-.13-1.06V158.13a7,7,0,0,0-4.36-1.24,6,6,0,0,0-5.15,2.39,10.34,10.34,0,0,0-1.48,5.84,9.25,9.25,0,0,0,1.8,6,6.79,6.79,0,0,0,5.64,2.47,11.57,11.57,0,0,0,3.68-.49"/><path class="cls-1" d="M386.45,164a29.87,29.87,0,0,1-.36,3.5H368.92c.41,4,2.8,6,7.13,6a16.1,16.1,0,0,0,6.74-1.4l2,4.92a22.62,22.62,0,0,1-9.11,2,13.31,13.31,0,0,1-9.86-3.8,13.63,13.63,0,0,1-3.76-10,14.81,14.81,0,0,1,3.16-9.82,11.14,11.14,0,0,1,9.18-4.11,11.52,11.52,0,0,1,8.92,3.55c2.1,2.3,3.13,5.34,3.13,9.15m-6.6-1.48a6.75,6.75,0,0,0-1.36-4.27,5.14,5.14,0,0,0-4-1.66,4.9,4.9,0,0,0-4,1.7,6.82,6.82,0,0,0-1.6,4.23Z"/><path class="cls-1" d="M427.3,176.63a21.94,21.94,0,0,1-9.71,2.4q-8.22,0-13.39-5.22a18.23,18.23,0,0,1-5.2-13.42c0-5.48,1.6-10,4.78-13.47s7.54-5.31,13-5.31a25.42,25.42,0,0,1,10.45,2.46L425,149.49a20.84,20.84,0,0,0-8.4-2.08,9.31,9.31,0,0,0-7.84,3.76,13.54,13.54,0,0,0-2.67,8.56c0,4,1,7.25,3.09,9.67s5.27,3.82,9.25,3.82a16.53,16.53,0,0,0,7.15-1.69Z"/><path class="cls-1" d="M453.69,165.21a14.11,14.11,0,0,1-3.67,10,12.71,12.71,0,0,1-9.69,3.9,12.54,12.54,0,0,1-9.69-4,15.31,15.31,0,0,1,0-19.83,13.9,13.9,0,0,1,19.35,0,14,14,0,0,1,3.67,10m-7.08.06a10.48,10.48,0,0,0-1.38-5.69,5.81,5.81,0,0,0-9.78,0,10.53,10.53,0,0,0-1.38,5.73,10.4,10.4,0,0,0,1.38,5.67,5.82,5.82,0,0,0,9.78,0,10.31,10.31,0,0,0,1.38-5.67"/><path class="cls-1" d="M494.12,178.49h-6.39V161.82c0-3.26-1.54-4.92-4.61-4.92a10.71,10.71,0,0,0-4.79,1.35,15.33,15.33,0,0,1,.24,3.15v17.09h-6.4V161.76c0-3.24-1.51-4.86-4.56-4.86a10.89,10.89,0,0,0-4.73,1.15c.06.51.1.91.1,1.16v19.28h-6.35v-21a34,34,0,0,0-.34-3.47,34.63,34.63,0,0,1,11.95-2.67c3.68,0,6.32.83,7.91,2.46a18.23,18.23,0,0,1,8.88-2.46,9.1,9.1,0,0,1,6.7,2.42,9.3,9.3,0,0,1,2.39,6.78Z"/><path class="cls-1" d="M521.12,164c0,.52-.13,1.7-.36,3.5H503.57c.42,4,2.81,6,7.1,6a16.44,16.44,0,0,0,6.79-1.4l2,4.92a22.63,22.63,0,0,1-9.15,2,13.23,13.23,0,0,1-9.84-3.8,13.61,13.61,0,0,1-3.74-10c0-4,1-7.33,3.12-9.82a11.13,11.13,0,0,1,9.17-4.11,11.54,11.54,0,0,1,8.94,3.55,13,13,0,0,1,3.16,9.15m-6.59-1.48a7,7,0,0,0-1.41-4.27,5.07,5.07,0,0,0-4-1.66,4.93,4.93,0,0,0-3.94,1.7,6.59,6.59,0,0,0-1.59,4.23Z"/><path class="cls-1" d="M540.88,151.93l-1.9,5.46a11.94,11.94,0,0,0-3.52-.5,15.79,15.79,0,0,0-4.8.66c0,.26.08.42.08.54v20.4h-6.39V158.25a26.19,26.19,0,0,0-.48-4c4.69-1.95,8.7-2.92,12.12-2.92a19.8,19.8,0,0,1,4.89.59"/><path class="cls-1" d="M561.38,177.25a20.36,20.36,0,0,1-8.17,1.83,14.52,14.52,0,0,1-10.34-3.85,13,13,0,0,1-4.13-10,13.26,13.26,0,0,1,13.87-13.88,22.1,22.1,0,0,1,8.77,1.88l-1.91,5.13a17.91,17.91,0,0,0-6.47-1.45,6.64,6.64,0,0,0-5.43,2.36,9.33,9.33,0,0,0,.19,11.85,7.43,7.43,0,0,0,5.82,2.47,17.3,17.3,0,0,0,5.95-1.36Z"/><path class="cls-1" d="M572.06,142.85a3.39,3.39,0,0,1-1.14,2.67,4,4,0,0,1-2.78,1.06,3.76,3.76,0,0,1-2.74-1.06,3.55,3.55,0,0,1-1.07-2.67,3.72,3.72,0,0,1,3.81-3.8,3.8,3.8,0,0,1,2.74,1.11,3.53,3.53,0,0,1,1.18,2.69m-.61,35.64h-6.4V151.93h6.4Z"/><path class="cls-1" d="M601.44,165.21a13.94,13.94,0,0,1-3.67,10,13.89,13.89,0,0,1-19.39-.09,13.78,13.78,0,0,1-3.59-9.88,13.93,13.93,0,0,1,3.66-10,13.86,13.86,0,0,1,19.32,0,13.85,13.85,0,0,1,3.67,10m-7.08.06a10.66,10.66,0,0,0-1.36-5.69,5.79,5.79,0,0,0-9.76,0,10.35,10.35,0,0,0-1.38,5.73,10.23,10.23,0,0,0,1.38,5.67,5.81,5.81,0,0,0,9.76,0,10.49,10.49,0,0,0,1.36-5.67"/><path class="cls-1" d="M359.44,225.72a30.26,30.26,0,0,1-10.27,2,14.21,14.21,0,0,1-10.42-4,13.7,13.7,0,0,1-4.09-10.27,14.22,14.22,0,0,1,3.07-9.34,11.21,11.21,0,0,1,9.09-4.09,12.48,12.48,0,0,1,5.95,1.43V188.1h6.38v34.05c0,.72.11,1.91.29,3.57m-6.54-4.05a7.79,7.79,0,0,1-.13-1.07V206.73a7,7,0,0,0-4.36-1.24,5.94,5.94,0,0,0-5.15,2.43,10.05,10.05,0,0,0-1.48,5.77,9.37,9.37,0,0,0,1.8,6,6.74,6.74,0,0,0,5.64,2.44,10.56,10.56,0,0,0,3.68-.48"/><path class="cls-1" d="M386.45,212.66a30.39,30.39,0,0,1-.36,3.49H368.92c.41,4,2.8,6,7.13,6a16.4,16.4,0,0,0,6.74-1.36l2,4.92a23.26,23.26,0,0,1-9.11,2,13.23,13.23,0,0,1-9.86-3.8,13.55,13.55,0,0,1-3.76-10,14.83,14.83,0,0,1,3.16-9.82,11.22,11.22,0,0,1,9.18-4.1,11.59,11.59,0,0,1,8.92,3.54c2.1,2.31,3.13,5.35,3.13,9.17m-6.6-1.51a6.64,6.64,0,0,0-1.36-4.23,5,5,0,0,0-4-1.71,4.84,4.84,0,0,0-4,1.74,6.83,6.83,0,0,0-1.6,4.2Z"/><path class="cls-1" d="M425.17,217.06c0,7.09-5.17,10.62-15.43,10.62a49,49,0,0,1-9.14-1V191.25a49,49,0,0,1,9.23-1.07c9.33,0,14,3.39,14,10.25a7.86,7.86,0,0,1-1.51,4.67,9.33,9.33,0,0,1-3.92,3.14v.1a8.4,8.4,0,0,1,4.95,3.12,8.92,8.92,0,0,1,1.83,5.6M417,200.63a4.11,4.11,0,0,0-2.12-4,11.48,11.48,0,0,0-4.73-.73,15.67,15.67,0,0,0-2.92.29v9.32h3.24c4.36,0,6.53-1.64,6.53-4.89m1.28,16c0-3.55-2.56-5.35-7.64-5.35h-3.41v10.3a18.47,18.47,0,0,0,3,.23c5.39,0,8.08-1.71,8.08-5.18"/><path class="cls-1" d="M453.27,213.83a13.88,13.88,0,0,1-3.7,10,12.55,12.55,0,0,1-9.63,3.89,12.73,12.73,0,0,1-9.74-4,13.74,13.74,0,0,1-3.6-9.88,14,14,0,0,1,3.64-10,14,14,0,0,1,19.33,0,13.86,13.86,0,0,1,3.7,10m-7.08,0a10.43,10.43,0,0,0-1.39-5.69,5.33,5.33,0,0,0-4.86-2.69,5.4,5.4,0,0,0-4.91,2.64,10.84,10.84,0,0,0-1.38,5.74,10.54,10.54,0,0,0,1.38,5.69,5.83,5.83,0,0,0,9.77,0,10.36,10.36,0,0,0,1.39-5.69"/><path class="cls-1" d="M480.09,231.13c0,3.06-1.52,5.36-4.55,6.85a19.28,19.28,0,0,1-8.68,1.77,21.11,21.11,0,0,1-8.36-1.54c-3.05-1.41-4.54-3.55-4.54-6.39,0-3.43,2-5.74,6.06-6.95a5.06,5.06,0,0,1-1.08-2.93,4.39,4.39,0,0,1,1.87-3.44,9.75,9.75,0,0,1-1.82-16,11.89,11.89,0,0,1,7.82-2.59,13.54,13.54,0,0,1,2.47.3,16.65,16.65,0,0,0,1.78.29h9v4.88a8.3,8.3,0,0,1-3.57-.48l-.1.12a9.71,9.71,0,0,1,1.55,4.86,9.24,9.24,0,0,1-2.23,6.29,11,11,0,0,1-5.91,3.41c-.31.07-1.47.19-3.51.34a3.22,3.22,0,0,0-1.21.47,1.13,1.13,0,0,0-.64.93c0,.9,1.33,1.53,4,1.94a35.35,35.35,0,0,1,7.54,1.73,6.28,6.28,0,0,1,4,6.1m-6.5.36c0-1.22-1.39-2.15-4.24-2.79-2-.35-4-.65-5.91-1-2.42.8-3.65,2.1-3.65,3.88,0,1.22.9,2.14,2.77,2.72a15.17,15.17,0,0,0,4.34.57c4.47,0,6.69-1.1,6.69-3.42m-1.75-21.44a4.35,4.35,0,0,0-1.38-3.47,6.07,6.07,0,0,0-7.3,0,5,5,0,0,0,0,6.94,6,6,0,0,0,7.3,0,4.32,4.32,0,0,0,1.38-3.47"/><path class="cls-1" d="M507.46,213.83a14.11,14.11,0,0,1-3.66,10,13.92,13.92,0,0,1-19.39-.08,13.72,13.72,0,0,1-3.63-9.88,13.93,13.93,0,0,1,3.67-10,14,14,0,0,1,19.35,0,14.09,14.09,0,0,1,3.66,10m-7.07,0a10.7,10.7,0,0,0-1.38-5.69,5.83,5.83,0,0,0-9.79-.05,11,11,0,0,0-1.37,5.74,10.72,10.72,0,0,0,1.37,5.69,5.85,5.85,0,0,0,9.79,0,10.63,10.63,0,0,0,1.38-5.69"/><path class="cls-1" d="M526.85,226.56a22.87,22.87,0,0,1-7.11,1.49q-8.22,0-8.21-7.38V206l-3-.17v-5l3-.17v-7.38h6.38v7.29h7.45v5.53h-7.45v14.12c0,1.52.83,2.27,2.44,2.27a15.57,15.57,0,0,0,4.76-1.06Z"/><path class="cls-1" d="M550.16,225.61a40.22,40.22,0,0,1-11.32,2.07A16.43,16.43,0,0,1,531,226a6.86,6.86,0,0,1-4.06-6.35,7.09,7.09,0,0,1,4.27-6.76,43.6,43.6,0,0,1,8-2.22c2.82-.64,4.22-1.56,4.22-2.72,0-1.63-1.46-2.43-4.43-2.43a18.54,18.54,0,0,0-7.38,1.58l-2.22-4.82A25.06,25.06,0,0,1,539.87,200a11.47,11.47,0,0,1,7.12,2,8,8,0,0,1,2.82,6.63v13.67a26.12,26.12,0,0,0,.35,3.35m-6.64-4a10.14,10.14,0,0,1-.11-1v-6.53a7,7,0,0,1-3.37,1.38,29.69,29.69,0,0,0-4.1,1.13,2.81,2.81,0,0,0-2,2.55c0,2.15,1.64,3.25,4.94,3.25a15.28,15.28,0,0,0,4.62-.75m.82-29.74a2.14,2.14,0,0,1-1,1.84l-6.49,4.36-2.31-2.65,5.15-5.7a2.41,2.41,0,0,1,1.76-.8,2.63,2.63,0,0,1,2,.92,2.81,2.81,0,0,1,.9,2"/><path class="cls-2" d="M216.74,128.93c-2.6,8.72-15,15.35-29.83,15.35-16.74,0-30.33-8.39-30.33-18.76s13.59-18.75,30.33-18.75c14.86,0,27.23,6.62,29.83,15.35,1-6.35,5.11-12.19,11.27-16.94C218.35,97.75,203.55,93,186.91,93c-29.08,0-52.64,14.56-52.64,32.53s23.56,32.55,52.64,32.55c16.64,0,31.44-4.76,41.1-12.19-6.16-4.74-10.22-10.56-11.27-16.95"/><path class="cls-2" d="M216.74,198.71c-2.6,8.71-15,15.35-29.83,15.35-16.74,0-30.33-8.39-30.33-18.73s13.59-18.75,30.33-18.75c14.86,0,27.23,6.61,29.83,15.33,1-6.38,5.11-12.2,11.27-16.95-9.66-7.42-24.46-12.18-41.1-12.18-29.08,0-52.64,14.56-52.64,32.55s23.56,32.52,52.64,32.52c16.64,0,31.44-4.76,41.1-12.19-6.16-4.77-10.22-10.56-11.27-16.95"/><path class="cls-2" d="M241.32,128.93c2.6,8.72,15,15.35,29.82,15.35,16.75,0,30.31-8.39,30.31-18.76s-13.56-18.75-30.31-18.75c-14.86,0-27.22,6.62-29.82,15.35-1.07-6.35-5.12-12.19-11.26-16.94C239.7,97.75,254.52,93,271.14,93c29.07,0,52.65,14.56,52.65,32.53s-23.58,32.55-52.65,32.55c-16.62,0-31.44-4.76-41.08-12.19,6.14-4.74,10.19-10.56,11.26-16.95"/><path class="cls-2" d="M241.32,198.71c2.6,8.71,15,15.35,29.82,15.35,16.75,0,30.31-8.39,30.31-18.73s-13.56-18.75-30.31-18.75c-14.86,0-27.22,6.61-29.82,15.33-1.07-6.38-5.12-12.2-11.26-16.95,9.64-7.42,24.46-12.18,41.08-12.18,29.07,0,52.65,14.56,52.65,32.55s-23.58,32.52-52.65,32.52c-16.62,0-31.44-4.76-41.08-12.19,6.14-4.77,10.19-10.56,11.26-16.95"/></svg>