<?xml version="1.0" encoding="UTF-8" standalone="no"?>
<!-- Created with Inkscape (http://www.inkscape.org/) -->

<svg
   xmlns:dc="http://purl.org/dc/elements/1.1/"
   xmlns:cc="http://creativecommons.org/ns#"
   xmlns:rdf="http://www.w3.org/1999/02/22-rdf-syntax-ns#"
   xmlns:svg="http://www.w3.org/2000/svg"
   xmlns="http://www.w3.org/2000/svg"
   xmlns:sodipodi="http://sodipodi.sourceforge.net/DTD/sodipodi-0.dtd"
   xmlns:inkscape="http://www.inkscape.org/namespaces/inkscape"
   width="51.333332mm"
   height="16.833332mm"
   viewBox="0 0 51.333334 16.833332"
   version="1.1"
   id="svg8"
   inkscape:version="0.92.3 (2405546, 2018-03-11)"
   sodipodi:docname="logo.svg">
  <defs
     id="defs2" />
  <sodipodi:namedview
     id="base"
     pagecolor="#ffffff"
     bordercolor="#666666"
     borderopacity="1.0"
     inkscape:pageopacity="0"
     inkscape:pageshadow="2"
     inkscape:zoom="5.6"
     inkscape:cx="102.32621"
     inkscape:cy="40.07526"
     inkscape:document-units="mm"
     inkscape:current-layer="g21"
     showgrid="false"
     fit-margin-top="0"
     fit-margin-left="0"
     fit-margin-right="0"
     fit-margin-bottom="0"
     inkscape:window-width="1920"
     inkscape:window-height="1013"
     inkscape:window-x="0"
     inkscape:window-y="0"
     inkscape:window-maximized="1"
     inkscape:pagecheckerboard="true"
     showborder="true" />
  <metadata
     id="metadata5">
    <rdf:RDF>
      <cc:Work
         rdf:about="">
        <dc:format>image/svg+xml</dc:format>
        <dc:type
           rdf:resource="http://purl.org/dc/dcmitype/StillImage" />
        <dc:title></dc:title>
      </cc:Work>
    </rdf:RDF>
  </metadata>
  <g
     inkscape:label="Capa 1"
     inkscape:groupmode="layer"
     id="layer1"
     transform="translate(20.491138,6.7190012)">
    <g
       id="g21"
       transform="matrix(5,0,0,5,-20.566531,-6.6725437)">
      <path
         style="fill:#fcfcfc;fill-opacity:0.01694916;stroke-width:0.03333333"
         d="M 0.01507864,1.6740418 V -0.0092915 H 5.1484116 10.281745 V 1.6740418 3.3573751 H 5.1484116 0.01507864 Z"
         id="path37"
         inkscape:connector-curvature="0" />
      <path
         style="fill:#a0a3a9;stroke-width:0.03333333"
         d="M 1.1644893,3.2895308 C 1.0724986,3.254127 0.94842421,3.1836586 0.88876858,3.1329343 L 0.78030375,3.0407084 0.86435785,2.8767258 C 0.95969564,2.6907296 0.97226774,2.5001966 0.89860228,2.3577433 0.79172562,2.1510666 0.586238,2.1038618 0.31977182,2.2247739 c -0.0799187,0.036264 -0.14932156,0.065935 -0.15422852,0.065935 -0.004907,0 -0.0407689,-0.074031 -0.0796932,-0.1645127 -0.08958307,-0.2082415 -0.09814544,-0.502154 -0.01462894,-0.502154 0.10948178,0 0.35127988,-0.1439232 0.41365668,-0.246217 0.0348067,-0.057081 0.063341,-0.1424183 0.0634095,-0.1896392 C 0.54843383,1.0872302 0.43618494,0.97169222 0.30674528,0.93956588 0.18839386,0.91019158 0.1899964,0.84331109 0.31372652,0.64820892 0.42441261,0.47367506 0.51376187,0.43547043 0.69452876,0.48538259 0.83890322,0.52524629 1.0226303,0.48315673 1.117243,0.38854406 1.1875012,0.31828583 1.2009919,0.2398714 1.1484119,0.20737516 1.030111,0.1342612 1.2370281,-0.0092915 1.4607155,-0.0092915 c 0.1199601,0 0.1598599,0.01465373 0.1892066,0.0694886 0.039968,0.0746808 0.2201278,0.16384473 0.3310558,0.16384473 0.037422,0 0.1160138,-0.0458457 0.1746476,-0.10187924 0.082063,-0.07842349 0.1261204,-0.09726307 0.1913632,-0.08182907 0.1142803,0.02703439 0.2537948,0.13466443 0.2412865,0.1861432 -0.017286,0.0711435 0.063031,0.22512777 0.1456681,0.27927351 0.090968,0.0596042 0.2238521,0.066788 0.3166598,0.0171188 0.08539,-0.0456993 0.1819469,0.006897 0.2661344,0.14496687 0.085738,0.1406125 0.082341,0.16276943 -0.035203,0.22965559 -0.1296476,0.0737733 -0.1285683,0.17330491 0.00308,0.28408011 0.056578,0.047608 0.1199566,0.1253891 0.1408406,0.172848 0.036106,0.08205 0.038503,0.078694 0.048805,-0.068324 l 0.010834,-0.1546133 0.5046813,-0.00387 0.5046813,-0.00387 0.093644,0.089717 c 0.085559,0.081971 0.093644,0.1103171 0.093644,0.3283142 0,0.1889307 -0.012706,0.250096 -0.061038,0.2938363 -0.033571,0.030382 -0.072321,0.043956 -0.086111,0.030166 -0.01379,-0.01379 -0.020073,-0.00257 -0.013962,0.024927 0.00923,0.041536 -0.048271,0.051589 -0.3396696,0.059384 l -0.3507807,0.00938 0.012615,0.1322822 0.012615,0.1322822 H 3.6685797 c -0.1838363,0 -0.1868346,-0.00155 -0.1868346,-0.096434 0,-0.1050175 -0.047326,-0.1368996 -0.2032162,-0.1368996 -0.2198391,0 -0.3019916,0.3800645 -0.1479304,0.6843743 l 0.082187,0.1623395 -0.081721,0.1071422 C 3.0570953,3.0415423 2.691334,3.2573751 2.600959,3.2573751 c -0.020243,0 -0.076251,-0.08925 -0.1244625,-0.198333 C 2.3366209,2.7425618 2.1401336,2.6575565 1.8609126,2.7927251 1.7516424,2.8456219 1.6994238,2.9007567 1.6337218,3.0326032 c -0.04692,0.094157 -0.08531,0.2057497 -0.08531,0.2479834 0,0.064767 -0.01696,0.076516 -0.1083334,0.075052 C 1.3804952,3.3546848 1.2564801,3.3249348 1.1644893,3.2895308 Z M 3.1567451,1.9352991 c -0.022917,-0.00925 -0.060417,-0.00925 -0.083333,0 -0.022917,0.00925 -0.00417,0.016813 0.041667,0.016813 0.045833,0 0.064583,-0.00757 0.041666,-0.016813 z m 0.7493056,-0.031396 c -0.011077,-0.011076 -0.039827,-0.012261 -0.063889,-0.00263 -0.026591,0.010641 -0.018693,0.018539 0.020139,0.020139 0.035139,0.00145 0.054826,-0.00643 0.04375,-0.017507 z m 0.414144,-0.346507 -0.011551,-0.1666874 -0.2384493,1.033e-4 -0.2384496,1.033e-4 -2.334e-4,0.1665635 -2.333e-4,0.1665635 0.2502476,2.07e-5 0.2502477,2.07e-5 -0.01155,-0.1666874 z M 0.6326494,1.0657768 C 0.6200051,1.0153978 0.6213494,0.9858682 0.6356364,1.0001558 0.6499238,1.0144428 0.6821791,0.9919128 0.7073149,0.9500875 0.7324506,0.9082625 0.7451981,0.8996478 0.7356427,0.9309437 0.7208486,0.9793973 0.7307377,0.9831048 0.8022509,0.9559156 0.8484408,0.9383542 0.91664222,0.9077111 0.95380962,0.8878197 1.0146063,0.8552823 1.019139,0.8594658 0.99898542,0.9295145 0.98051842,0.9937006 0.98802952,0.9898123 1.0417517,0.9073754 1.2128189,0.64487207 1.5091042,0.46693634 1.8303452,0.43378134 c 0.1780409,-0.0183754 0.4983187,0.0367505 0.5771626,0.0993408 0.031805,0.0252484 0.037136,0.0198872 0.021289,-0.02141 -0.016289,-0.0424469 -0.00756,-0.0498802 0.038038,-0.0323835 0.044836,0.017205 0.052565,0.0112371 0.031889,-0.024622 -0.01501,-0.0260322 0.022517,-0.002331 0.083391,0.0526687 l 0.1106815,0.1 -0.088859,-0.11981303 C 2.5550643,0.42166511 2.5150783,0.32844291 2.5150783,0.28040177 2.5150783,0.11712321 2.3089555,0.07196596 2.181745,0.20737537 2.123016,0.26988987 2.069517,0.29067757 1.9676012,0.29058407 1.8249394,0.29045305 1.6267457,0.19323173 1.5937262,0.10718439 1.5719932,0.05054905 1.4275239,0.0416202 1.3024297,0.08918094 1.2289881,0.11710338 1.2211025,0.13533485 1.2378444,0.2385026 1.2543237,0.34005303 1.2424268,0.36955209 1.1502755,0.45563433 1.0223213,0.57516142 0.86301998,0.61098652 0.67344709,0.56286782 0.5167543,0.52309496 0.45894124,0.55403116 0.34530136,0.73846109 l -0.060232,0.0977526 0.13441536,0.0601795 c 0.0905561,0.0405432 0.14678105,0.0929401 0.17231255,0.16058071 0.0473717,0.1255021 0.0714437,0.1306891 0.0408522,0.0088 z m 4.2639576,0.834281 c 0.012097,-0.031524 0.011169,-0.046492 -0.00206,-0.033261 -0.040316,0.040316 -0.1461334,-0.081173 -0.1461334,-0.167776 0,-0.044745 0.031021,-0.1249203 0.068936,-0.1781671 0.068437,-0.096111 0.071637,-0.096864 0.4416666,-0.1038917 L 5.6317449,1.409883 5.279132,1.3992261 4.926519,1.3885691 4.797367,1.2563054 4.668215,1.1240418 h 0.543286 c 0.4958183,0 0.5517446,0.00602 0.6400983,0.068936 0.096268,0.068549 0.096812,0.07089 0.096812,0.4166666 V 1.9573746 H 5.411512 c -0.4940127,0 -0.5351427,-0.00458 -0.514905,-0.057317 z M 5.5650783,1.6907085 c -0.011331,-0.018333 -0.109716,-0.033333 -0.218634,-0.033333 -0.1097997,0 -0.1980327,0.014852 -0.1980327,0.033333 0,0.018834 0.0951,0.033333 0.218634,0.033333 0.1372677,0 0.210967,-0.012405 0.1980327,-0.033333 z m 0.4499999,-0.068266 c 0,-0.3239295 0.00301,-0.3375378 0.091667,-0.4142512 0.088525,-0.076601 0.1103173,-0.079304 0.6359086,-0.078872 0.531613,4.37e-4 0.5429187,0.00191 0.4872117,0.063465 -0.031366,0.03466 -0.068989,0.055627 -0.083605,0.046593 -0.014616,-0.00903 -0.037429,0.00114 -0.050695,0.022603 -0.01608,0.026018 -0.00958,0.030038 0.019514,0.01206 0.028799,-0.017799 0.035586,-0.013945 0.01996,0.011337 -0.01302,0.021067 -0.054648,0.054882 -0.092506,0.075143 -0.055282,0.029586 -0.063797,0.027981 -0.043253,-0.00815 0.020617,-0.036264 0.01687,-0.036909 -0.019311,-0.00333 -0.027942,0.025935 -0.1430537,0.041667 -0.30489,0.041667 h -0.26 l -0.00384,0.225 c -0.00211,0.12375 -0.00117,0.25125 0.00209,0.2833333 0.00507,0.049794 -0.023651,0.058333 -0.1961613,0.058333 h -0.20209 z m 1.3562363,0.2414416 c -0.079493,-0.082973 -0.08957,-0.1193309 -0.08957,-0.323176 0,-0.2038451 0.010077,-0.2402034 0.08957,-0.3231761 l 0.08957,-0.093491 H 8.0114128 8.5619414 L 8.4317448,1.2573751 8.3015481,1.3907085 H 7.9777578 c -0.207776,0 -0.3282133,-0.013268 -0.336134,-0.037029 -0.00679,-0.020366 -0.011789,0.053566 -0.011111,0.1642933 l 0.00123,0.2013226 0.3466374,-4.337e-4 0.3466376,-4.336e-4 0.1194737,0.1194736 0.1194736,0.1194737 H 8.0124268 7.4608855 l -0.08957,-0.093491 z m 1.2666666,0 c -0.079844,-0.083339 -0.08957,-0.1189348 -0.08957,-0.3278234 0,-0.2181967 0.00687,-0.2404505 0.099711,-0.323176 0.097005,-0.086432 0.1113137,-0.088843 0.527097,-0.088843 0.4247476,0 0.4279383,5.77e-4 0.5169553,0.093491 0.079493,0.082973 0.08957,0.119331 0.08957,0.3231761 0,0.2038451 -0.010077,0.2402034 -0.08957,0.323176 -0.089228,0.093134 -0.091238,0.093491 -0.527097,0.093491 -0.4358593,0 -0.4378686,-3.564e-4 -0.5270963,-0.093492 z M 9.3984114,1.523381 V 1.3227202 l -0.2666667,0.0055 c -0.1466666,0.00302 -0.2478233,0.012101 -0.2247923,0.020174 0.023031,0.00807 0.033351,0.028469 0.022935,0.045324 -0.010417,0.016855 -0.02176,0.098075 -0.025208,0.1804897 l -0.00627,0.1498445 0.25,-3.4e-6 0.25,-3.4e-6 z M 9.815078,1.4073751 V 0.85737515 h 0.2 0.2 v 0.54999995 0.55 h -0.2 -0.2 z"
         id="path35"
         inkscape:connector-curvature="0" />
      <path
         style="fill:#f2b515;stroke-width:0.03333333"
         d="M 1.2984119,3.3267971 C 1.1842764,3.2983365 1.0065974,3.2109357 0.87543728,3.1187346 L 0.78579602,3.0557199 0.86535548,2.8982142 C 0.99968867,2.6322715 0.98970404,2.4253339 0.83507858,2.2707085 0.74275959,2.1783895 0.69620593,2.1573751 0.58400797,2.1573751 c -0.0757555,0 -0.19158736,0.0225 -0.25740411,0.05 -0.0658168,0.0275 -0.13244977,0.05 -0.14807336,0.05 C 0.12371,2.2573751 0.04736,2.0570899 0.02665104,1.8589572 0.00812632,1.6817223 0.01293403,1.6565556 0.0687414,1.6386286 0.39040904,1.5352992 0.54841193,1.3924024 0.54841193,1.2048176 c 0,-0.135261 -0.0918581,-0.24081408 -0.23437498,-0.26931745 -0.0544271,-0.0108854 -0.0989583,-0.0343997 -0.0989583,-0.052254 0,-0.0696141 0.10775017,-0.2541567 0.19999966,-0.3425373 C 0.50914591,0.45058635 0.5165161,0.44911355 0.66516956,0.49073395 0.95386211,0.57156289 1.2435808,0.40293659 1.1539602,0.20624087 1.1214813,0.13495735 1.1271086,0.11769634 1.1979619,0.07127146 1.2426458,0.04199347 1.3405379,0.00981231 1.4155,-2.4221985e-4 1.5296259,-0.01554971 1.5664296,-0.00488036 1.64177,0.06535311 1.8376814,0.24798479 2.0218914,0.27538328 2.1484118,0.1407085 2.2941381,-0.01441005 2.62696,0.08019312 2.5913252,0.26660468 c -0.010415,0.0544803 0.016049,0.11115598 0.087733,0.18789408 0.088595,0.0948418 0.1197588,0.10786023 0.2276663,0.0951076 0.068761,-0.008126 0.1489284,-0.0254088 0.1781491,-0.0384055 0.072443,-0.0322209 0.2635382,0.14903056 0.2635382,0.24996249 0,0.0425518 -0.038003,0.1074462 -0.08489,0.14495966 -0.046689,0.0373554 -0.087381,0.10166879 -0.090427,0.14291879 -0.00305,0.04125 -0.026471,0.075 -0.052057,0.075 -0.073245,0 -0.01805,-0.17031259 0.084971,-0.26218949 0.083486,-0.0744556 0.085628,-0.0837565 0.038386,-0.16666666 C 3.1974878,0.61286415 3.1813828,0.60806005 2.986755,0.61833215 2.783602,0.62905415 2.7763181,0.62645715 2.6471143,0.49725372 2.5638433,0.41398302 2.515079,0.33449989 2.515079,0.28204495 2.515079,0.19108885 2.472372,0.14466117 2.3558242,0.10891613 2.2968712,0.09083549 2.2584942,0.10854928 2.1841172,0.18816983 2.1139596,0.26327313 2.0584643,0.29067516 1.9767048,0.29058389 1.8619049,0.29045575 1.652375,0.18488203 1.6050889,0.10334154 1.5733484,0.04860806 1.3717572,0.04253555 1.2766277,0.09344734 1.2263733,0.12034266 1.2144159,0.15019699 1.2296258,0.21079799 1.2867571,0.43842746 0.97264857,0.63570729 0.67898823,0.55663276 0.51424404,0.51227176 0.42132608,0.55950949 0.33901151,0.72947052 0.28575439,0.83943449 0.28614604,0.84113632 0.37512455,0.88639415 0.5418197,0.97118162 0.6150786,1.0621185 0.6150786,1.1842511 c 0,0.211041 -0.19674682,0.4296776 -0.44166664,0.4908059 -0.10353565,0.025841 -0.11719114,0.1057255 -0.0558404,0.3266658 0.0283701,0.1021681 0.0466495,0.1225483 0.0914808,0.1019941 0.0308144,-0.014128 0.12352627,-0.024368 0.20602626,-0.022757 0.0825,0.00161 0.12374999,-0.00414 0.0916667,-0.012772 -0.10148276,-0.027316 -0.0633766,-0.070786 0.0833333,-0.095062 0.0779167,-0.012893 0.15666666,-0.032732 0.17499999,-0.044086 0.0183333,-0.011354 0.0408333,-0.022529 0.05,-0.024831 0.009167,-0.0023 0.0646096,-0.015496 0.12320646,-0.029318 L 1.0448248,1.8497592 0.98851047,1.7119005 C 0.95467224,1.6290638 0.93281428,1.4875244 0.93374494,1.3572706 0.93942964,0.56165166 1.9220768,0.16043588 2.599508,0.67713789 2.7147301,0.76502205 2.8817451,1.0065559 2.8817451,1.0853037 c 0,0.026969 -0.1063341,0.038738 -0.35,0.038738 H 2.1817452 V 1.5407084 1.957375 h 0.1999999 0.2 V 1.6740418 1.3907085 h 0.2166667 0.2166666 v 0.2833333 0.2833333 l 0.1416667,0.00211 c 0.1159605,0.00173 0.1284101,0.00745 0.06861,0.03154 C 3.0231219,2.0724851 2.9750302,2.397061 3.1232056,2.6804412 L 3.2108198,2.8480038 3.0879491,2.9676141 C 2.9808025,3.0719176 2.5926503,3.2849142 2.568858,3.2524628 2.5641182,3.2459978 2.5341051,3.1701574 2.5021623,3.0839284 2.4256014,2.8772539 2.2518186,2.7240418 2.0939563,2.7240418 c -0.2587171,0 -0.4573088,0.173831 -0.5308079,0.4646263 -0.041402,0.1638033 -0.080327,0.1841127 -0.2647365,0.138129 z M 0.34563417,2.10286 C 0.39137827,2.062838 0.28288287,2.10001 0.22978294,2.142547 0.16877274,2.191426 0.16983634,2.19212 0.24841194,2.154699 0.29424524,2.132871 0.33799524,2.109543 0.34563417,2.10286 Z M 2.1484118,1.4740418 V 0.99070848 h -0.2 -0.1999999 V 1.4740418 1.9573751 h 0.1999999 0.2 z m -0.3333333,-0.0173 v -0.4327 h 0.1333333 0.1333334 l -2.16e-5,0.425 -2.16e-5,0.425 -0.1333118,0.0077 -0.1333117,0.0077 z m 1.6999999,0.200633 v -0.5 H 4.012659 4.5102397 l 0.069086,0.087829 c 0.051079,0.064937 0.069086,0.1361382 0.069086,0.273176 0,0.155728 -0.014314,0.2002877 -0.08957,0.278838 -0.086221,0.089995 -0.101799,0.093491 -0.4166666,0.093491 h -0.327097 v 0.1333333 0.1333333 h -0.15 -0.15 z m 0.8333333,-0.15 V 1.2907085 h -0.261111 c -0.1436113,0 -0.2673613,0.0062 -0.275,0.013782 -0.00764,0.00758 -0.00881,0.1050799 -0.00259,0.2166667 l 0.011292,0.2028849 h 0.263706 0.263706 z m -0.95,0.4833334 c -0.036667,-0.015756 -0.047917,-0.029702 -0.025,-0.03099 0.029666,-0.00167 0.041667,-0.079148 0.041667,-0.2690095 0,-0.366632 0.048565,-0.3375871 0.056038,0.033514 0.00332,0.1649004 0.00332,0.2987647 0,0.2974762 -0.00332,-0.00129 -0.036038,-0.015234 -0.072704,-0.03099 z M 2.2484118,1.5240418 V 1.1573751 h 0.4961663 c 0.4905727,0 0.4967732,9.264e-4 0.55,0.082161 0.038934,0.05942 0.053834,0.1609053 0.053834,0.3666667 V 1.8907085 H 3.2150784 3.0817451 v -0.3 -0.3 H 2.7984118 2.5150785 v 0.3 0.3 H 2.3817451 2.2484118 Z M 4.8781923,1.8035936 C 4.7767503,1.6956136 4.770824,1.6232967 4.855988,1.5326439 4.9205387,1.4639328 4.9566863,1.4573751 5.2708886,1.4573751 H 5.6150783 V 1.3740418 1.2907085 H 5.2702446 c -0.3025006,0 -0.3522403,-0.00818 -0.4051663,-0.066667 -0.060069,-0.066375 -0.058221,-0.066667 0.4223567,-0.066667 0.4614503,0 0.4858779,0.00339 0.5551663,0.077148 0.062978,0.067037 0.072477,0.1152553 0.072477,0.3678977 v 0.2907493 l -0.480402,-0.0043 C 4.9717306,1.8847354 4.95151,1.8816366 4.8781923,1.8035936 Z m 0.736886,-0.1462185 c 0,-0.061111 -0.022222,-0.066667 -0.2666667,-0.066667 -0.2444443,0 -0.2666666,0.00556 -0.2666666,0.066667 0,0.061111 0.022222,0.066667 0.2666666,0.066667 0.2444443,0 0.2666667,-0.00556 0.2666667,-0.066667 z m 0.4666666,-0.051173 c 0,-0.2057614 0.0149,-0.3072463 0.053834,-0.3666667 0.05309,-0.081026 0.060457,-0.082161 0.5336156,-0.082161 0.471438,0 0.4790583,0.00116 0.4381483,0.066667 -0.037443,0.059956 -0.077734,0.066667 -0.4002826,0.066667 H 6.3484116 v 0.3 0.3 H 6.2150782 6.0817449 Z m 1.3271806,0.1928394 c -0.077893,-0.083714 -0.083887,-0.1104634 -0.069089,-0.3083333 0.024706,-0.3303623 0.030074,-0.3333334 0.602241,-0.3333334 0.4812216,0 0.4830696,2.9e-4 0.4230006,0.066667 -0.052926,0.058482 -0.1026657,0.066667 -0.4051663,0.066667 H 7.6150781 v 0.2166666 0.2166667 h 0.3448337 c 0.2917363,0 0.3533283,0.00939 0.4,0.060958 0.030342,0.033527 0.055166,0.071027 0.055166,0.083333 0,0.012306 -0.2071937,0.022375 -0.4604303,0.022375 -0.4593883,0 -0.4606233,-2.067e-4 -0.545722,-0.091667 z m 1.2786296,0.014518 C 8.6291764,1.7514187 8.6150781,1.6960763 8.6150781,1.529054 c 0,-0.1347433 0.018852,-0.2361295 0.053834,-0.2895183 0.052544,-0.080192 0.063983,-0.082161 0.477523,-0.082161 0.3997783,0 0.4277793,0.00435 0.4961663,0.077148 0.059094,0.062903 0.072477,0.117225 0.072477,0.2941895 0,0.1837717 -0.011826,0.228151 -0.077148,0.2895183 -0.07037,0.066109 -0.1123257,0.072477 -0.477523,0.072477 -0.3754076,0 -0.404894,-0.00481 -0.4728523,-0.077148 z M 9.4484114,1.5073751 V 1.2907085 H 9.165078 8.8817447 V 1.5073751 1.7240418 H 9.165078 9.4484114 Z M 9.8817447,1.3719525 V 0.85737515 h 0.1333333 0.133333 V 1.3701123 1.8828495 l -0.133333,0.00184 -0.1333333,0.00184 V 1.3719522 Z"
         id="path33"
         inkscape:connector-curvature="0" />
      <path
         style="fill:#ed741f;stroke-width:0.03333333"
         d="M 1.2984119,3.3267971 C 1.1842764,3.2983365 1.0065974,3.2109357 0.87543728,3.1187346 L 0.78579602,3.0557199 0.86535548,2.8982142 C 0.99968867,2.6322715 0.98970404,2.4253339 0.83507858,2.2707085 0.74275959,2.1783895 0.69620593,2.1573751 0.58400797,2.1573751 c -0.0757555,0 -0.19158736,0.0225 -0.25740411,0.05 -0.0658168,0.0275 -0.13244977,0.05 -0.14807336,0.05 C 0.12371,2.2573751 0.04736,2.0570899 0.02665104,1.8589572 0.00812632,1.6817223 0.01293403,1.6565556 0.0687414,1.6386286 0.39040904,1.5352992 0.54841193,1.3924024 0.54841193,1.2048176 c 0,-0.135261 -0.0918581,-0.24081408 -0.23437498,-0.26931745 -0.0544271,-0.0108854 -0.0989583,-0.0343997 -0.0989583,-0.052254 0,-0.0696141 0.10775017,-0.2541567 0.19999966,-0.3425373 C 0.50914591,0.45058635 0.5165161,0.44911355 0.66516956,0.49073395 0.95386211,0.57156289 1.2435808,0.40293659 1.1539602,0.20624087 1.1214813,0.13495735 1.1271086,0.11769634 1.1979619,0.07127146 1.2426458,0.04199347 1.3405379,0.00981231 1.4155,-2.4221985e-4 1.5296259,-0.01554971 1.5664296,-0.00488036 1.64177,0.06535311 1.8376814,0.24798479 2.0218914,0.27538328 2.1484118,0.1407085 2.2941381,-0.01441005 2.62696,0.08019312 2.5913252,0.26660468 c -0.010415,0.0544803 0.016049,0.11115598 0.087733,0.18789408 0.088595,0.0948418 0.1197588,0.10786023 0.2276663,0.0951076 0.068761,-0.008126 0.1489284,-0.0254088 0.1781491,-0.0384055 0.072443,-0.0322209 0.2635382,0.14903056 0.2635382,0.24996249 0,0.0425518 -0.038003,0.1074462 -0.08489,0.14495966 -0.046689,0.0373554 -0.087381,0.10166879 -0.090427,0.14291879 -0.00305,0.04125 -0.026471,0.075 -0.052057,0.075 -0.073245,0 -0.01805,-0.17031259 0.084971,-0.26218949 0.083486,-0.0744556 0.085628,-0.0837565 0.038386,-0.16666666 C 3.1974878,0.61286415 3.1813828,0.60806005 2.986755,0.61833215 2.783602,0.62905415 2.7763181,0.62645715 2.6471143,0.49725372 2.5638433,0.41398302 2.515079,0.33449989 2.515079,0.28204495 2.515079,0.19108885 2.472372,0.14466117 2.3558242,0.10891613 2.2968712,0.09083549 2.2584942,0.10854928 2.1841172,0.18816983 2.1139596,0.26327313 2.0584643,0.29067516 1.9767048,0.29058389 1.8619049,0.29045575 1.652375,0.18488203 1.6050889,0.10334154 1.5733484,0.04860806 1.3717572,0.04253555 1.2766277,0.09344734 1.2263733,0.12034266 1.2144159,0.15019699 1.2296258,0.21079799 1.2867571,0.43842746 0.97264857,0.63570729 0.67898823,0.55663276 0.51424404,0.51227176 0.42132608,0.55950949 0.33901151,0.72947052 0.28575439,0.83943449 0.28614604,0.84113632 0.37512455,0.88639415 0.5418197,0.97118162 0.6150786,1.0621185 0.6150786,1.1842511 c 0,0.211041 -0.19674682,0.4296776 -0.44166664,0.4908059 -0.10353565,0.025841 -0.11719114,0.1057255 -0.0558404,0.3266658 0.0283701,0.1021681 0.0466495,0.1225483 0.0914808,0.1019941 0.0308144,-0.014128 0.12352627,-0.024368 0.20602626,-0.022757 0.0825,0.00161 0.12374999,-0.00414 0.0916667,-0.012772 -0.10148276,-0.027316 -0.0633766,-0.070786 0.0833333,-0.095062 0.0779167,-0.012893 0.15666666,-0.032732 0.17499999,-0.044086 0.0183333,-0.011354 0.0408333,-0.022529 0.05,-0.024831 0.009167,-0.0023 0.0646096,-0.015496 0.12320646,-0.029318 L 1.0448248,1.8497592 0.98851047,1.7119005 C 0.95467224,1.6290638 0.93281428,1.4875244 0.93374494,1.3572706 0.93942964,0.56165166 1.9220768,0.16043588 2.599508,0.67713789 2.7147301,0.76502205 2.8817451,1.0065559 2.8817451,1.0853037 c 0,0.026954 -0.1058266,0.038738 -0.347888,0.038738 H 2.1859691 L 2.172525,1.2323751 C 2.163315,1.3066291 2.157403,1.2856571 2.153746,1.1657081 L 2.148416,0.99070808 h -0.2 -0.1999999 V 1.1252146 c 0,0.122653 -0.00568,0.1314653 -0.064475,0.1 -0.035461,-0.018978 -0.1299614,-0.034506 -0.21,-0.034506 -0.080039,0 -0.1635247,-0.018 -0.1855247,-0.04 -0.022,-0.022 -0.04023,-0.02575 -0.04051,-0.00833 -2.8e-4,0.017417 -0.013766,0.010732 -0.029967,-0.014854 -0.022859,-0.036101 -0.040412,-0.024903 -0.078368,0.05 -0.14696736,0.29001 -0.091517,0.5843296 0.1565277,0.8308411 0.243885,0.2423776 0.5595451,0.3140646 0.8819864,0.2003006 C 2.4846817,2.1004929 2.6579268,1.8862837 2.7009166,1.5622109 l 0.022751,-0.1715024 h 0.1457056 0.1457056 v 0.2833333 0.2833333 l 0.1416667,0.00211 c 0.1159605,0.00173 0.1284101,0.00745 0.06861,0.03154 C 3.0231223,2.0724851 2.9750306,2.397061 3.123206,2.6804412 L 3.2108198,2.8480038 3.0879491,2.9676141 C 2.9808025,3.0719176 2.5926503,3.2849142 2.568858,3.2524628 2.5641182,3.2459978 2.5341051,3.1701574 2.5021623,3.0839284 2.4256014,2.8772539 2.2518186,2.7240418 2.0939563,2.7240418 c -0.2587171,0 -0.4573088,0.173831 -0.5308079,0.4646263 -0.041402,0.1638033 -0.080327,0.1841127 -0.2647365,0.138129 z M 0.34563417,2.10286 C 0.39137827,2.062838 0.28288287,2.10001 0.22978294,2.142547 0.16877274,2.191426 0.16983634,2.19212 0.24841194,2.154699 0.29424524,2.132871 0.33799524,2.109543 0.34563417,2.10286 Z M 3.5150784,1.6573751 v -0.5 H 4.012659 4.5102397 l 0.069086,0.087829 c 0.051079,0.064937 0.069086,0.1361382 0.069086,0.273176 0,0.155728 -0.014314,0.2002877 -0.08957,0.278838 -0.086221,0.089995 -0.101799,0.093491 -0.4166666,0.093491 h -0.327097 v 0.1333333 0.1333333 h -0.15 -0.15 z m 0.8333333,-0.15 V 1.2907085 h -0.261111 c -0.1436113,0 -0.2673613,0.0062 -0.275,0.013782 -0.00764,0.00758 -0.00881,0.1050799 -0.00259,0.2166667 l 0.011292,0.2028849 h 0.263706 0.263706 z m -0.95,0.4833334 c -0.036667,-0.015756 -0.047917,-0.029702 -0.025,-0.03099 0.029666,-0.00167 0.041667,-0.079148 0.041667,-0.2690095 0,-0.366632 0.048565,-0.3375871 0.056038,0.033514 0.00332,0.1649004 0.00332,0.2987647 0,0.2974762 -0.00332,-0.00129 -0.036038,-0.015234 -0.072704,-0.03099 z M 1.8150785,1.4567421 V 1.0240418 h 0.1333333 0.1333334 l -2.16e-5,0.425 -2.16e-5,0.425 -0.1333118,0.0077 -0.1333117,0.0077 z m 0.4333333,0.0673 v -0.366667 h 0.4961663 c 0.4905727,0 0.4967732,9.264e-4 0.55,0.082161 0.038934,0.05942 0.053834,0.1609053 0.053834,0.3666667 V 1.8907085 H 3.2150784 3.0817451 v -0.3 -0.3 H 2.7984118 2.5150785 v 0.3 0.3 H 2.3817451 2.2484118 Z M 4.8781923,1.8035936 C 4.7767503,1.6956136 4.770824,1.6232967 4.855988,1.5326439 4.9205387,1.4639328 4.9566863,1.4573751 5.2708886,1.4573751 H 5.6150783 V 1.3740418 1.2907085 H 5.2702446 c -0.3025006,0 -0.3522403,-0.00818 -0.4051663,-0.066667 -0.060069,-0.066375 -0.058221,-0.066667 0.4223567,-0.066667 0.4614503,0 0.4858779,0.00339 0.5551663,0.077148 0.062978,0.067037 0.072477,0.1152553 0.072477,0.3678977 v 0.2907493 l -0.480402,-0.0043 C 4.9717306,1.8847354 4.95151,1.8816366 4.8781923,1.8035936 Z m 0.736886,-0.1462185 c 0,-0.061111 -0.022222,-0.066667 -0.2666667,-0.066667 -0.2444443,0 -0.2666666,0.00556 -0.2666666,0.066667 0,0.061111 0.022222,0.066667 0.2666666,0.066667 0.2444443,0 0.2666667,-0.00556 0.2666667,-0.066667 z m 0.4666666,-0.051173 c 0,-0.2057614 0.0149,-0.3072463 0.053834,-0.3666667 0.05309,-0.081026 0.060457,-0.082161 0.5336156,-0.082161 0.471438,0 0.4790583,0.00116 0.4381483,0.066667 -0.037443,0.059956 -0.077734,0.066667 -0.4002826,0.066667 H 6.3484116 v 0.3 0.3 H 6.2150782 6.0817449 Z m 1.3271806,0.1928394 c -0.077893,-0.083714 -0.083887,-0.1104634 -0.069089,-0.3083333 0.024706,-0.3303623 0.030074,-0.3333334 0.602241,-0.3333334 0.4812216,0 0.4830696,2.9e-4 0.4230006,0.066667 -0.052926,0.058482 -0.1026657,0.066667 -0.4051663,0.066667 H 7.6150781 v 0.2166666 0.2166667 h 0.3448337 c 0.2917363,0 0.3533283,0.00939 0.4,0.060958 0.030342,0.033527 0.055166,0.071027 0.055166,0.083333 0,0.012306 -0.2071937,0.022375 -0.4604303,0.022375 -0.4593883,0 -0.4606233,-2.067e-4 -0.545722,-0.091667 z m 1.2786296,0.014518 C 8.6291764,1.7514187 8.6150781,1.6960763 8.6150781,1.529054 c 0,-0.1347433 0.018852,-0.2361295 0.053834,-0.2895183 0.052544,-0.080192 0.063983,-0.082161 0.477523,-0.082161 0.3997783,0 0.4277793,0.00435 0.4961663,0.077148 0.059094,0.062903 0.072477,0.117225 0.072477,0.2941895 0,0.1837717 -0.011826,0.228151 -0.077148,0.2895183 -0.07037,0.066109 -0.1123257,0.072477 -0.477523,0.072477 -0.3754076,0 -0.404894,-0.00481 -0.4728523,-0.077148 z M 9.4484114,1.5073751 V 1.2907085 H 9.165078 8.8817447 V 1.5073751 1.7240418 H 9.165078 9.4484114 Z M 9.8817447,1.3719525 V 0.85737515 h 0.1333333 0.133333 V 1.3701123 1.8828495 l -0.133333,0.00184 -0.1333333,0.00184 V 1.3719522 Z m -7.2999996,0.072322 c 0,-0.00721 0.023279,-0.022033 0.051731,-0.032952 0.029664,-0.011383 0.043044,-0.00579 0.031366,0.0131 -0.019575,0.031674 -0.083097,0.046848 -0.083097,0.019852 z"
         id="path31"
         inkscape:connector-curvature="0" />
      <path
         style="fill:#205a98;stroke-width:0.03333333"
         d="M 1.2984119,3.3267971 C 1.1842764,3.2983365 1.0065974,3.2109357 0.87543728,3.1187346 L 0.78579602,3.0557199 0.86535548,2.8982142 C 0.99968867,2.6322715 0.98970404,2.4253339 0.83507858,2.2707085 0.74275959,2.1783895 0.69620593,2.1573751 0.58400797,2.1573751 c -0.0757555,0 -0.19158736,0.0225 -0.25740411,0.05 -0.0658168,0.0275 -0.13244977,0.05 -0.14807336,0.05 C 0.12371,2.2573751 0.04736,2.0570899 0.02665104,1.8589572 0.00812632,1.6817223 0.01293403,1.6565556 0.0687414,1.6386286 0.39040904,1.5352992 0.54841193,1.3924024 0.54841193,1.2048176 c 0,-0.135261 -0.0918581,-0.24081408 -0.23437498,-0.26931745 -0.0544271,-0.0108854 -0.0989583,-0.0343997 -0.0989583,-0.052254 0,-0.0696141 0.10775017,-0.2541567 0.19999966,-0.3425373 C 0.50914591,0.45058635 0.5165161,0.44911355 0.66516956,0.49073395 0.95386211,0.57156289 1.2435808,0.40293659 1.1539602,0.20624087 1.1214813,0.13495735 1.1271086,0.11769634 1.1979619,0.07127146 1.2426458,0.04199347 1.3405379,0.00981231 1.4155,-2.4221985e-4 1.5296259,-0.01554971 1.5664296,-0.00488036 1.64177,0.06535311 1.8376814,0.24798479 2.0218914,0.27538328 2.1484118,0.1407085 2.2941381,-0.01441005 2.62696,0.08019312 2.5913252,0.26660468 c -0.010415,0.0544803 0.016049,0.11115598 0.087733,0.18789408 0.088595,0.0948418 0.1197588,0.10786023 0.2276663,0.0951076 0.068761,-0.008126 0.1489284,-0.0254088 0.1781491,-0.0384055 0.072443,-0.0322209 0.2635382,0.14903056 0.2635382,0.24996249 0,0.0425518 -0.038003,0.1074462 -0.08489,0.14495966 -0.046689,0.0373554 -0.087381,0.10166879 -0.090427,0.14291879 -0.00305,0.04125 -0.026471,0.075 -0.052057,0.075 -0.073245,0 -0.01805,-0.17031259 0.084971,-0.26218949 0.083486,-0.0744556 0.085628,-0.0837565 0.038386,-0.16666666 C 3.1974878,0.61286415 3.1813828,0.60806005 2.986755,0.61833215 2.783602,0.62905415 2.7763181,0.62645715 2.6471143,0.49725372 2.5638433,0.41398302 2.515079,0.33449989 2.515079,0.28204495 2.515079,0.19108885 2.472372,0.14466117 2.3558242,0.10891613 2.2968712,0.09083549 2.2584942,0.10854928 2.1841172,0.18816983 2.1139596,0.26327313 2.0584643,0.29067516 1.9767048,0.29058389 1.8619049,0.29045575 1.652375,0.18488203 1.6050889,0.10334154 1.5733484,0.04860806 1.3717572,0.04253555 1.2766277,0.09344734 1.2263733,0.12034266 1.2144159,0.15019699 1.2296258,0.21079799 1.2867571,0.43842746 0.97264857,0.63570729 0.67898823,0.55663276 0.51424404,0.51227176 0.42132608,0.55950949 0.33901151,0.72947052 0.28575439,0.83943449 0.28614604,0.84113632 0.37512455,0.88639415 0.5418197,0.97118162 0.6150786,1.0621185 0.6150786,1.1842511 c 0,0.211041 -0.19674682,0.4296776 -0.44166664,0.4908059 -0.10353565,0.025841 -0.11719114,0.1057255 -0.0558404,0.3266658 0.0283701,0.1021681 0.0466495,0.1225483 0.0914808,0.1019941 0.0308144,-0.014128 0.12352627,-0.024368 0.20602626,-0.022757 0.0825,0.00161 0.12374999,-0.00414 0.0916667,-0.012772 -0.10148276,-0.027316 -0.0633766,-0.070786 0.0833333,-0.095062 0.0779167,-0.012893 0.15666666,-0.032732 0.17499999,-0.044086 0.0183333,-0.011354 0.0408333,-0.022529 0.05,-0.024831 0.009167,-0.0023 0.0646096,-0.015496 0.12320646,-0.029318 L 1.0448248,1.8497592 0.98851047,1.7119005 C 0.89725201,1.4884979 0.91531938,1.1771989 1.0319845,0.96284662 1.146998,0.75152889 1.2680844,0.64264692 1.5135427,0.52982502 1.9607992,0.32424903 2.5617389,0.50051629 2.8000635,0.90718652 2.9097809,1.0944051 2.9042977,1.1240418 2.7599427,1.1240418 2.6597275,1.1240418 2.6185351,1.1011375 2.5275208,0.99480778 2.1847498,0.59435696 1.4840389,0.63242939 1.1919838,1.0673728 0.98425321,1.3767361 1.0146943,1.7191906 1.2746506,1.9973534 1.7664419,2.5235881 2.7150785,2.1976225 2.7150785,1.502401 c 0,-0.1101541 0.00207,-0.1116925 0.15,-0.1116925 h 0.1499999 v 0.2833333 0.2833333 l 0.1416667,0.00211 c 0.1159605,0.00173 0.1284101,0.00745 0.06861,0.03154 C 3.0231219,2.0724851 2.9750302,2.397061 3.1232056,2.6804412 L 3.2108198,2.8480038 3.0879491,2.9676141 C 2.9808025,3.0719176 2.5926503,3.2849142 2.568858,3.2524628 2.5641182,3.2459978 2.5341051,3.1701574 2.5021623,3.0839284 2.4256014,2.8772539 2.2518186,2.7240418 2.0939563,2.7240418 c -0.2587171,0 -0.4573088,0.173831 -0.5308079,0.4646263 -0.041402,0.1638033 -0.080327,0.1841127 -0.2647365,0.138129 z M 0.34563417,2.10286 C 0.39137827,2.062838 0.28288287,2.10001 0.22978294,2.142547 0.16877274,2.191426 0.16983634,2.19212 0.24841194,2.154699 0.29424524,2.132871 0.33799524,2.109543 0.34563417,2.10286 Z M 3.5150784,1.6573751 v -0.5 H 4.012659 4.5102397 l 0.069086,0.087829 c 0.051079,0.064937 0.069086,0.1361382 0.069086,0.273176 0,0.155728 -0.014314,0.2002877 -0.08957,0.278838 -0.086221,0.089995 -0.101799,0.093491 -0.4166666,0.093491 h -0.327097 v 0.1333333 0.1333333 h -0.15 -0.15 z m 0.8333333,-0.15 V 1.2907085 h -0.261111 c -0.1436113,0 -0.2673613,0.0062 -0.275,0.013782 -0.00764,0.00758 -0.00881,0.1050799 -0.00259,0.2166667 l 0.011292,0.2028849 h 0.263706 0.263706 z m -0.95,0.4833334 c -0.036667,-0.015756 -0.047917,-0.029702 -0.025,-0.03099 0.029666,-0.00167 0.041667,-0.079148 0.041667,-0.2690095 0,-0.366632 0.048565,-0.3375871 0.056038,0.033514 0.00332,0.1649004 0.00332,0.2987647 0,0.2974762 -0.00332,-0.00129 -0.036038,-0.015234 -0.072704,-0.03099 z M 1.8150785,1.4567421 V 1.0240418 h 0.1333333 0.1333334 l -2.16e-5,0.425 -2.16e-5,0.425 -0.1333118,0.0077 -0.1333117,0.0077 z m 0.4333333,0.0673 v -0.366667 h 0.4961663 c 0.4905727,0 0.4967732,9.264e-4 0.55,0.082161 0.038934,0.05942 0.053834,0.1609053 0.053834,0.3666667 V 1.8907085 H 3.2150784 3.0817451 v -0.3 -0.3 H 2.7984118 2.5150785 v 0.3 0.3 H 2.3817451 2.2484118 Z M 4.8781923,1.8035936 C 4.7767503,1.6956136 4.770824,1.6232967 4.855988,1.5326439 4.9205387,1.4639328 4.9566863,1.4573751 5.2708886,1.4573751 H 5.6150783 V 1.3740418 1.2907085 H 5.2702446 c -0.3025006,0 -0.3522403,-0.00818 -0.4051663,-0.066667 -0.060069,-0.066375 -0.058221,-0.066667 0.4223567,-0.066667 0.4614503,0 0.4858779,0.00339 0.5551663,0.077148 0.062978,0.067037 0.072477,0.1152553 0.072477,0.3678977 v 0.2907493 l -0.480402,-0.0043 C 4.9717306,1.8847354 4.95151,1.8816366 4.8781923,1.8035936 Z m 0.736886,-0.1462185 c 0,-0.061111 -0.022222,-0.066667 -0.2666667,-0.066667 -0.2444443,0 -0.2666666,0.00556 -0.2666666,0.066667 0,0.061111 0.022222,0.066667 0.2666666,0.066667 0.2444443,0 0.2666667,-0.00556 0.2666667,-0.066667 z m 0.4666666,-0.051173 c 0,-0.2057614 0.0149,-0.3072463 0.053834,-0.3666667 0.05309,-0.081026 0.060457,-0.082161 0.5336156,-0.082161 0.471438,0 0.4790583,0.00116 0.4381483,0.066667 -0.037443,0.059956 -0.077734,0.066667 -0.4002826,0.066667 H 6.3484116 v 0.3 0.3 H 6.2150782 6.0817449 Z m 1.3271806,0.1928394 c -0.077893,-0.083714 -0.083887,-0.1104634 -0.069089,-0.3083333 0.024706,-0.3303623 0.030074,-0.3333334 0.602241,-0.3333334 0.4812216,0 0.4830696,2.9e-4 0.4230006,0.066667 -0.052926,0.058482 -0.1026657,0.066667 -0.4051663,0.066667 H 7.6150781 v 0.2166666 0.2166667 h 0.3448337 c 0.2917363,0 0.3533283,0.00939 0.4,0.060958 0.030342,0.033527 0.055166,0.071027 0.055166,0.083333 0,0.012306 -0.2071937,0.022375 -0.4604303,0.022375 -0.4593883,0 -0.4606233,-2.067e-4 -0.545722,-0.091667 z m 1.2786296,0.014518 C 8.6291764,1.7514187 8.6150781,1.6960763 8.6150781,1.529054 c 0,-0.1347433 0.018852,-0.2361295 0.053834,-0.2895183 0.052544,-0.080192 0.063983,-0.082161 0.477523,-0.082161 0.3997783,0 0.4277793,0.00435 0.4961663,0.077148 0.059094,0.062903 0.072477,0.117225 0.072477,0.2941895 0,0.1837717 -0.011826,0.228151 -0.077148,0.2895183 -0.07037,0.066109 -0.1123257,0.072477 -0.477523,0.072477 -0.3754076,0 -0.404894,-0.00481 -0.4728523,-0.077148 z M 9.4484114,1.5073751 V 1.2907085 H 9.165078 8.8817447 V 1.5073751 1.7240418 H 9.165078 9.4484114 Z M 9.8817447,1.3719525 V 0.85737515 h 0.1333333 0.133333 V 1.3701123 1.8828495 l -0.133333,0.00184 -0.1333333,0.00184 V 1.3719522 Z"
         id="path29"
         inkscape:connector-curvature="0" />
      <path
         style="fill:#5a5b5d;stroke-width:0.03333333"
         d="M 1.2984119,3.3267971 C 1.1842764,3.2983365 1.0065974,3.2109357 0.87543728,3.1187346 L 0.78579602,3.0557199 0.86535548,2.8982142 C 0.99968867,2.6322715 0.98970404,2.4253339 0.83507858,2.2707085 0.74275959,2.1783895 0.69620593,2.1573751 0.58400797,2.1573751 c -0.0757555,0 -0.19158736,0.0225 -0.25740411,0.05 -0.0658168,0.0275 -0.13244977,0.05 -0.14807336,0.05 C 0.12371,2.2573751 0.04736,2.0570899 0.02665104,1.8589572 0.00812632,1.6817223 0.01293403,1.6565556 0.0687414,1.6386286 0.39040904,1.5352992 0.54841193,1.3924024 0.54841193,1.2048176 c 0,-0.135261 -0.0918581,-0.24081408 -0.23437498,-0.26931745 -0.0544271,-0.0108854 -0.0989583,-0.0343997 -0.0989583,-0.052254 0,-0.0696141 0.10775017,-0.2541567 0.19999966,-0.3425373 C 0.50914591,0.45058635 0.5165161,0.44911355 0.66516956,0.49073395 0.95386211,0.57156289 1.2435808,0.40293659 1.1539602,0.20624087 1.1214813,0.13495735 1.1271086,0.11769634 1.1979619,0.07127146 1.2426458,0.04199347 1.3405379,0.00981231 1.4155,-2.4221985e-4 1.5296259,-0.01554971 1.5664296,-0.00488036 1.64177,0.06535311 1.8376814,0.24798479 2.0218914,0.27538328 2.1484118,0.1407085 2.2941381,-0.01441005 2.62696,0.08019312 2.5913252,0.26660468 c -0.010415,0.0544803 0.016049,0.11115598 0.087733,0.18789408 0.088595,0.0948418 0.1197588,0.10786023 0.2276663,0.0951076 0.068761,-0.008126 0.1489284,-0.0254088 0.1781491,-0.0384055 0.072443,-0.0322209 0.2635382,0.14903056 0.2635382,0.24996249 0,0.0425518 -0.038003,0.1074462 -0.08489,0.14495966 -0.046689,0.0373554 -0.087381,0.10166879 -0.090427,0.14291879 -0.00305,0.04125 -0.026471,0.075 -0.052057,0.075 -0.073245,0 -0.01805,-0.17031259 0.084971,-0.26218949 0.083486,-0.0744556 0.085628,-0.0837565 0.038386,-0.16666666 C 3.1974878,0.61286415 3.1813828,0.60806005 2.986755,0.61833215 2.783602,0.62905415 2.7763181,0.62645715 2.6471143,0.49725372 2.5638433,0.41398302 2.515079,0.33449989 2.515079,0.28204495 2.515079,0.19108885 2.472372,0.14466117 2.3558242,0.10891613 2.2968712,0.09083549 2.2584942,0.10854928 2.1841172,0.18816983 2.1139596,0.26327313 2.0584643,0.29067516 1.9767048,0.29058389 1.8619049,0.29045575 1.652375,0.18488203 1.6050889,0.10334154 1.5733484,0.04860806 1.3717572,0.04253555 1.2766277,0.09344734 1.2263733,0.12034266 1.2144159,0.15019699 1.2296258,0.21079799 1.2867571,0.43842746 0.97264857,0.63570729 0.67898823,0.55663276 0.51424404,0.51227176 0.42132608,0.55950949 0.33901151,0.72947052 0.28575439,0.83943449 0.28614604,0.84113632 0.37512455,0.88639415 0.5418197,0.97118162 0.6150786,1.0621185 0.6150786,1.1842511 c 0,0.211041 -0.19674682,0.4296776 -0.44166664,0.4908059 -0.10353565,0.025841 -0.11719114,0.1057255 -0.0558404,0.3266658 0.0283701,0.1021681 0.0466495,0.1225483 0.0914808,0.1019941 0.0308144,-0.014128 0.12352627,-0.024368 0.20602626,-0.022757 0.0825,0.00161 0.12374999,-0.00414 0.0916667,-0.012772 -0.10148276,-0.027316 -0.0633766,-0.070786 0.0833333,-0.095062 0.0779167,-0.012893 0.15666666,-0.032732 0.17499999,-0.044086 0.0183333,-0.011354 0.0408333,-0.022529 0.05,-0.024831 0.009167,-0.0023 0.0646096,-0.015496 0.12320646,-0.029318 L 1.0448248,1.8497592 0.98851047,1.7119005 C 0.89725201,1.4884979 0.91531938,1.1771989 1.0319845,0.96284662 1.146998,0.75152889 1.2680844,0.64264692 1.5135427,0.52982502 1.9607992,0.32424903 2.5617389,0.50051629 2.8000635,0.90718652 2.9097809,1.0944051 2.9042977,1.1240418 2.7599427,1.1240418 2.6597275,1.1240418 2.6185351,1.1011375 2.5275208,0.99480778 2.1847498,0.59435696 1.4840389,0.63242939 1.1919838,1.0673728 0.98425321,1.3767361 1.0146943,1.7191906 1.2746506,1.9973534 1.7664419,2.5235881 2.7150785,2.1976225 2.7150785,1.502401 c 0,-0.1101541 0.00207,-0.1116925 0.15,-0.1116925 h 0.1499999 v 0.2833333 0.2833333 l 0.1416667,0.00211 c 0.1159605,0.00173 0.1284101,0.00745 0.06861,0.03154 C 3.0231219,2.0724851 2.9750302,2.397061 3.1232056,2.6804412 L 3.2108198,2.8480038 3.0879491,2.9676141 C 2.9808025,3.0719176 2.5926503,3.2849142 2.568858,3.2524628 2.5641182,3.2459978 2.5341051,3.1701574 2.5021623,3.0839284 2.4256014,2.8772539 2.2518186,2.7240418 2.0939563,2.7240418 c -0.2587171,0 -0.4573088,0.173831 -0.5308079,0.4646263 -0.041402,0.1638033 -0.080327,0.1841127 -0.2647365,0.138129 z M 0.34563417,2.10286 C 0.39137827,2.062838 0.28288287,2.10001 0.22978294,2.142547 0.16877274,2.191426 0.16983634,2.19212 0.24841194,2.154699 0.29424524,2.132871 0.33799524,2.109543 0.34563417,2.10286 Z M 3.5311211,1.9657085 c 0.013048,-0.1054167 0.028679,-0.1968194 0.034736,-0.2031171 0.00606,-0.0063 0.1803754,-0.018315 0.387376,-0.026704 0.2070003,-0.00839 0.3817233,-0.020612 0.388273,-0.027162 0.015078,-0.015077 0.034367,-0.1158534 0.037689,-0.1969048 0.00186,-0.045363 0.020613,-0.057498 0.069217,-0.044787 0.044269,0.011577 0.066667,0.00102 0.066667,-0.031413 0,-0.026866 0.015,-0.039576 0.033333,-0.028245 0.018333,0.011331 0.033563,9.66e-4 0.033844,-0.023033 3.7e-4,-0.031706 0.00934,-0.029966 0.032823,0.00637 0.066584,0.1030307 0.038243,0.3078943 -0.056236,0.4065093 -0.086221,0.089995 -0.101799,0.093491 -0.4166666,0.093491 H 3.8150784 V 2.0240418 2.1573751 H 3.6612377 3.5073967 Z m -0.1327094,0.025 c -0.036667,-0.015756 -0.047917,-0.029702 -0.025,-0.03099 0.029666,-0.00167 0.041667,-0.079148 0.041667,-0.2690095 0,-0.366632 0.048565,-0.3375871 0.056038,0.033514 0.00332,0.1649004 0.00332,0.2987647 0,0.2974762 -0.00332,-0.00129 -0.036038,-0.015234 -0.072704,-0.03099 z M 1.8177101,1.6817421 c 0.00145,-0.1142352 0.00967,-0.1905267 0.018277,-0.1695368 0.029238,0.071322 0.2077189,-0.024828 0.2225314,-0.1198803 0.00728,-0.046722 0.015476,0.04255 0.018211,0.1983835 l 0.00497,0.2833333 -0.1333118,0.0077 -0.1333117,0.0077 0.00263,-0.2077003 z m 0.4307017,0.1803021 c 0,-0.036954 0.1401475,-0.1425768 0.1820319,-0.1371893 0.017618,0.00227 0.042813,-0.02324 0.055991,-0.05668 0.015811,-0.040124 0.024755,-0.012625 0.026301,0.080867 l 0.00234,0.1416667 H 2.3817451 c -0.073333,0 -0.1333333,-0.012899 -0.1333333,-0.028664 z M 3.083858,1.6323751 c 0.00154,-0.1886906 0.01024,-0.2381145 0.032259,-0.1833333 0.01658,0.04125 0.047466,0.075 0.068635,0.075 0.027503,0 0.026463,-0.01449 -0.00364,-0.050763 -0.034764,-0.041888 -0.033498,-0.047451 0.00724,-0.031816 0.063211,0.024256 0.1403328,-0.067205 0.1141663,-0.135394 -0.011512,-0.029999 -0.00602,-0.043504 0.012937,-0.031791 0.018123,0.011201 0.032952,0.1544799 0.032952,0.3183979 V 1.8907085 H 3.2150784 3.0817451 l 0.00211,-0.2583334 z m 1.7782873,0.1552721 c -0.05108,-0.053316 -0.075067,-0.096939 -0.053303,-0.096939 0.021763,0 0.03957,0.012952 0.03957,0.028782 0,0.045154 0.1327219,0.02626 0.1632783,-0.023244 0.022594,-0.036603 0.030631,-0.036157 0.045475,0.00252 0.01386,0.03612 0.082387,0.045228 0.2963054,0.039381 0.2540786,-0.00694 0.2792013,-0.013685 0.2889266,-0.077525 0.00898,-0.058945 -0.00672,-0.070079 -0.1,-0.070933 -0.093686,-8.583e-4 -0.1013976,-0.0064 -0.050294,-0.036123 0.033197,-0.01931 0.082726,-0.026526 0.1100647,-0.016035 0.028068,0.010771 0.040841,0.00473 0.029341,-0.013877 -0.011201,-0.018123 -0.08323,-0.035308 -0.1600646,-0.038188 L 5.331745,1.4802349 5.4984116,1.4604717 c 0.1292317,-0.015324 0.171106,-0.0087 0.186432,0.029493 0.015301,0.038131 0.029286,0.031467 0.061916,-0.029503 0.033279,-0.062183 0.048306,-0.069042 0.071391,-0.03259 0.022658,0.035777 0.030294,0.031163 0.033923,-0.020497 0.00665,-0.094638 0.057564,0.2077975 0.060534,0.3595644 l 0.00247,0.126231 -0.4800296,-0.00429 -0.48003,-0.00429 -0.092873,-0.096939 z m 1.2222313,-0.055272 c 0.00145,-0.087083 0.00983,-0.1406728 0.018637,-0.1190876 0.02647,0.064904 0.205803,-0.015921 0.22221,-0.1001491 0.00776,-0.039837 0.016152,0.02882 0.018648,0.1525701 l 0.00454,0.225 H 6.2150782 6.0817449 l 0.00263,-0.1583334 z m 1.3281786,0.067675 c -0.044446,-0.049862 -0.05456,-0.070525 -0.022477,-0.045918 0.032083,0.024607 0.058333,0.033566 0.058333,0.01991 0,-0.013656 0.0225,-0.00616 0.05,0.016667 0.040818,0.033876 0.05,0.031926 0.05,-0.010618 0,-0.028663 0.015372,-0.061614 0.034159,-0.073226 0.018787,-0.011611 0.030037,-0.00125 0.025,0.023033 -0.00529,0.025505 0.011952,0.03805 0.040841,0.02971 0.0275,-0.00794 0.1821333,-0.020714 0.3436296,-0.02839 0.246221,-0.011702 0.3040763,-0.0045 0.3583333,0.044601 0.035587,0.032206 0.064704,0.071231 0.064704,0.086723 0,0.015492 -0.2073853,0.028167 -0.4608563,0.028167 -0.4594783,0 -0.4610976,-2.7e-4 -0.5416666,-0.090658 z m 1.2960925,0.032325 c -0.027553,-0.032083 -0.062078,-0.080833 -0.076723,-0.1083333 -0.021132,-0.039682 -0.017716,-0.041754 0.016555,-0.010042 0.033707,0.031191 0.065103,0.028623 0.1430824,-0.011702 0.080767,-0.041766 0.096499,-0.042797 0.082142,-0.00538 -0.013082,0.034092 0.00977,0.044686 0.086808,0.040235 0.057511,-0.00332 0.1908159,-0.00763 0.2962326,-0.00958 l 0.1916667,-0.00353 0.00499,-0.2083333 c 0.00275,-0.1145834 0.011087,-0.1687034 0.018533,-0.1202668 0.012776,0.083103 0.019201,0.085929 0.1139937,0.050149 0.078492,-0.029627 0.097356,-0.054127 0.086282,-0.1120578 -0.00779,-0.040777 -0.00134,-0.066209 0.014345,-0.056515 0.015685,0.00969 0.028518,0.1191252 0.028518,0.2431808 0,0.1926717 -0.011248,0.2361221 -0.077148,0.2980327 -0.070384,0.066123 -0.1123087,0.072477 -0.478167,0.072477 -0.3406163,0 -0.4085643,-0.00879 -0.451115,-0.058333 z M 9.8856113,1.6302858 c 0.00213,-0.1409342 0.010939,-0.2288926 0.019582,-0.1954632 0.00971,0.037535 0.034765,0.053471 0.065526,0.041667 0.027396,-0.010513 0.07004,-0.019114 0.094766,-0.019114 0.02473,0 0.05146,-0.03375 0.0594,-0.075 0.0079,-0.04125 0.01649,0.054482 0.01899,0.2127372 l 0.0045,0.2877372 -0.133333,0.00184 -0.1333243,0.00184 0.00387,-0.256244 z m -6.1366892,0.068756 c 2.666e-4,-0.01375 0.015051,-0.0475 0.032823,-0.075 0.026129,-0.040432 0.03241,-0.035648 0.032823,0.025 2.806e-4,0.04125 -0.01449,0.075 -0.032823,0.075 -0.018333,0 -0.033104,-0.01125 -0.032823,-0.025 z m 3.2161561,-0.432308 c 0.036667,-0.00893 0.095041,-0.040943 0.1297216,-0.071133 0.060451,-0.052625 0.061153,-0.051795 0.016982,0.020108 -0.029557,0.048114 -0.07606,0.073614 -0.1297219,0.071133 -0.068876,-0.00318 -0.071875,-0.00673 -0.016982,-0.020108 z"
         id="path27"
         inkscape:connector-curvature="0" />
      <path
         style="fill:#20306d;stroke-width:0.03333333"
         d="M 1.3484119,3.3247968 C 1.1909316,3.2911704 1.0771834,3.2430407 0.91860644,3.1429355 L 0.78555989,3.0589469 0.86447038,2.9164943 C 0.98452367,2.699769 0.99961104,2.557378 0.92128341,2.3803054 0.88465301,2.2974963 0.82079618,2.2116079 0.77937932,2.1894423 0.67791356,2.1351394 0.44658304,2.1433171 0.29522798,2.2065573 0.2271827,2.2349884 0.16822003,2.2543033 0.16419984,2.2494794 0.11419136,2.1894723 0.04760244,2.0006298 0.03020415,1.8694751 0.00552776,1.6834553 0.02409245,1.6566603 0.2217458,1.5930174 0.43017944,1.5259032 0.5730817,1.322142 0.55064877,1.1240418 0.54266304,1.0535219 0.39022501,0.92404182 0.31518706,0.92404182 c -0.0983898,0 -0.10814374,-0.053572 -0.0356325,-0.1957059 0.0801926,-0.1571906 0.22727613,-0.28134236 0.29992592,-0.25316459 0.0287456,0.0111492 0.11976473,0.0280995 0.20226472,0.0376673 0.12130953,0.0140687 0.17231479,0.002239 0.2666666,-0.0618458 0.1225414,-0.0832321 0.1645863,-0.1991293 0.1003281,-0.27655571 -0.05046,-0.0608008 0.06604,-0.13899833 0.251078,-0.16852983 0.1210295,-0.01931589 0.1493322,-0.00931211 0.2781539,0.09831527 0.1844254,0.1540831 0.3642597,0.16588998 0.4882907,0.0320583 0.068232,-0.0736231 0.1006732,-0.08462258 0.2013826,-0.06827969 0.1551948,0.02518463 0.2141,0.07636937 0.2141,0.18603853 0,0.11363058 0.077523,0.22333365 0.2040645,0.28877054 0.080898,0.041834 0.1218296,0.0445225 0.2141199,0.0140639 C 3.1473036,0.50823634 3.2369969,0.53861184 3.2987773,0.658082 3.3653483,0.78681627 3.3613743,0.8332433 3.2794023,0.88443593 3.2414465,0.90813962 3.1895336,0.97549782 3.16404,1.0341209 3.1181194,1.1397161 3.1176757,1.1398826 3.1163832,1.0520049 3.1155158,0.99303615 3.1491372,0.93464285 3.2166812,0.87780832 3.325571,0.78618359 3.3207783,0.73317719 3.1931659,0.61773062 3.1406228,0.57019669 3.110986,0.56770792 2.9881224,0.60051206 2.8702636,0.63197992 2.8285416,0.62990166 2.7555393,0.58892652 2.6405775,0.52440012 2.5068905,0.32561943 2.5269269,0.24900016 2.5375882,0.20823118 2.5123486,0.17377152 2.447121,0.14004102 2.3201432,0.0743782 2.2576376,0.07785267 2.2175252,0.15280349 2.1992475,0.18695573 2.1379429,0.23409731 2.0812928,0.25756254 1.9501297,0.31189208 1.7615876,0.26117854 1.6489385,0.1412691 1.589493,0.07799223 1.5367374,0.0575006 1.4342681,0.05788559 1.242774,0.05860506 1.1988797,0.0957489 1.2098571,0.2477847 1.2229597,0.42925566 1.1095353,0.53015482 0.87011541,0.55000939 c -0.098345,0.008156 -0.20935728,-0.001521 -0.24669388,-0.0215026 -0.0823697,-0.0440829 -0.21398609,0.0452988 -0.29370446,0.19945713 -0.0546576,0.1056961 -0.0406735,0.16274453 0.0398929,0.16274453 0.0835302,0 0.24546865,0.18631865 0.24546865,0.28242455 0,0.1891721 -0.18895286,0.4090898 -0.41581984,0.4839627 -0.10811372,0.035681 -0.11751346,0.049327 -0.11751346,0.1706018 0,0.1183801 0.07473144,0.363011 0.11089497,0.363011 0.007863,0 0.0681468,-0.0225 0.13396359,-0.05 C 0.65513775,2.0034382 0.9168692,2.1364985 1.027491,2.497023 1.043293,2.548524 1.067005,2.546369 1.3049244,2.4718 1.4480091,2.426954 1.6025785,2.380795 1.6484119,2.3692225 c 0.045833,-0.011572 0.099049,-0.03329 0.1182562,-0.048262 0.019208,-0.014972 0.1128933,-0.031654 0.2081906,-0.03707 0.095297,-0.00542 0.173332,-0.019694 0.1734105,-0.031728 8e-5,-0.012034 0.032488,-0.013421 0.072022,-0.00308 0.053543,0.014002 0.064984,0.00764 0.04485,-0.024938 -0.01858,-0.030063 -0.014094,-0.03574 0.01435,-0.018161 0.042728,0.026407 0.3022547,-0.07334 0.3022547,-0.1161688 0,-0.013257 0.036879,-0.024104 0.081952,-0.024104 0.045074,0 0.1388238,-0.028125 0.2083334,-0.0625 0.075796,-0.037484 0.177134,-0.058316 0.2531816,-0.052047 l 0.1268008,0.010453 -0.082721,0.065068 C 2.9966424,2.1624889 2.9805629,2.4156944 3.1255998,2.7147139 L 3.1984118,2.8648288 3.053878,2.9931752 C 2.9743845,3.0637658 2.8318845,3.1505148 2.7372114,3.1859508 L 2.5650785,3.2503798 2.5446693,3.1769308 C 2.4865823,2.9678857 2.3241869,2.7765523 2.1584086,2.7218405 2.061745,2.6899386 2.0241441,2.6956455 1.888955,2.7627367 1.7125055,2.8503045 1.5968104,3.0013576 1.5432392,3.2141082 1.523398,3.292905 1.4976949,3.3556501 1.4861214,3.3535418 1.4745478,3.3514334 1.4125785,3.3384984 1.3484119,3.3247968 Z M 2.7744824,3.1056857 c 0.1182685,-0.049328 0.340596,-0.235293 0.340596,-0.2848898 0,-0.012926 -0.045767,0.019252 -0.1017049,0.071505 -0.056534,0.05281 -0.1231547,0.086776 -0.1499999,0.076474 -0.031085,-0.011928 -0.049233,0.00353 -0.050927,0.043367 -0.00145,0.034045 -0.00988,0.044087 -0.01875,0.022316 -0.010833,-0.026602 -0.038588,-0.017114 -0.084636,0.028935 -0.055462,0.055461 -0.074023,0.059828 -0.097406,0.022917 -0.022687,-0.035811 -0.028998,-0.033078 -0.029399,0.012732 -6.277e-4,0.071714 0.033397,0.07289 0.1922268,0.00664 z m -0.059404,-0.06301 c 0,-0.00808 -0.015,-0.02397 -0.033333,-0.035301 -0.018333,-0.011331 -0.033333,-0.00472 -0.033333,0.014699 0,0.019415 0.015,0.035301 0.033333,0.035301 0.018333,0 0.033333,-0.00661 0.033333,-0.014699 z M 2.4317451,2.0907085 c 0.033183,-0.036667 0.067832,-0.066667 0.076999,-0.066667 0.00917,0 -0.010483,0.03 -0.043666,0.066667 -0.033183,0.036667 -0.067833,0.066667 -0.076999,0.066667 -0.00917,0 0.010483,-0.03 0.043666,-0.066667 z m 1.0833333,0.021319 c 0,-0.024941 0.00938,-0.1137871 0.020846,-0.1974353 0.017589,-0.1283284 0.034461,-0.1555049 0.1079993,-0.1739619 0.047934,-0.012031 0.099969,-0.039435 0.115632,-0.060898 0.018184,-0.024917 0.021679,-0.017894 0.00967,0.019427 -0.017296,0.053745 0.00459,0.056727 0.2718557,0.037039 0.159866,-0.011777 0.2955413,-0.025455 0.3015003,-0.030397 0.013967,-0.011582 0.033347,-0.1142558 0.036615,-0.193981 0.00186,-0.045363 0.020613,-0.057498 0.069217,-0.044787 0.044269,0.011577 0.066667,0.00102 0.066667,-0.031413 0,-0.026866 0.013719,-0.040368 0.030486,-0.030005 0.016767,0.010363 0.038083,-1.9e-6 0.047368,-0.023033 0.00929,-0.023031 0.018066,0.049551 0.019514,0.1612927 0.00371,0.2867122 -0.028024,0.3085803 -0.4652847,0.3205887 l -0.3487503,0.00958 -0.01025,0.1416667 c -0.0102,0.1409779 -0.010889,0.1416666 -0.1416666,0.1416666 -0.0886,0 -0.1314167,-0.014774 -0.1314167,-0.045348 z M 3.4054201,1.9240418 c 0.00959,-0.036667 0.023184,-0.066667 0.030213,-0.066667 0.00703,0 0.012779,0.03 0.012779,0.066667 0,0.036667 -0.013596,0.066667 -0.030213,0.066667 -0.016617,0 -0.022368,-0.03 -0.012779,-0.066667 z m -1.58771,-0.2583333 c 0.00145,-0.1054167 0.00967,-0.1744931 0.018277,-0.1535032 0.029238,0.071322 0.2077189,-0.024828 0.2225314,-0.1198803 0.00728,-0.046722 0.015486,0.0388 0.018233,0.1900501 l 0.00499,0.275 H 1.9484118 1.8150785 l 0.00263,-0.1916666 z m 0.510049,0.1090121 c 0.052808,-0.045415 0.1079224,-0.075213 0.1224772,-0.066218 0.014555,0.009 0.033359,-0.010078 0.041786,-0.042386 0.00843,-0.032308 0.017063,-0.00249 0.019189,0.066258 l 0.00387,0.125 -0.1416667,-4e-5 -0.1416666,-4e-5 0.096014,-0.082573 z M 3.083858,1.6157085 c 0.00156,-0.1787066 0.00997,-0.2221274 0.032259,-0.1666667 0.01658,0.04125 0.047466,0.075 0.068635,0.075 0.027503,0 0.026463,-0.01449 -0.00364,-0.050763 -0.034764,-0.041888 -0.033498,-0.047451 0.00724,-0.031816 0.063211,0.024256 0.1403328,-0.067205 0.1141663,-0.135394 -0.011512,-0.029999 -0.00602,-0.043504 0.012937,-0.031791 0.018123,0.011201 0.032952,0.1469799 0.032952,0.3017312 V 1.8573751 H 3.2150784 3.0817451 l 0.00211,-0.2416666 z m 1.7810353,0.1747956 c -0.033285,-0.036779 -0.050609,-0.076779 -0.0385,-0.088889 0.01211,-0.01211 0.022018,-0.00657 0.022018,0.01232 0,0.049303 0.1306649,0.035148 0.1632783,-0.017688 0.022594,-0.036603 0.030631,-0.036157 0.045475,0.00252 0.01386,0.03612 0.082387,0.045228 0.2963054,0.039381 0.2540786,-0.00694 0.2792013,-0.013685 0.2889266,-0.077525 0.00898,-0.058945 -0.00672,-0.070079 -0.1,-0.070933 -0.093686,-8.583e-4 -0.1013976,-0.0064 -0.050294,-0.036123 0.033197,-0.01931 0.082726,-0.026526 0.1100647,-0.016035 0.028068,0.010771 0.040841,0.00473 0.029341,-0.013877 -0.011201,-0.018123 -0.08323,-0.035308 -0.1600646,-0.038188 L 5.331745,1.4802349 5.4984116,1.4604717 c 0.1292317,-0.015324 0.171106,-0.0087 0.186432,0.029493 0.015301,0.038131 0.029286,0.031467 0.061916,-0.029503 0.033279,-0.062183 0.048306,-0.069042 0.071391,-0.03259 0.022658,0.035777 0.030294,0.031163 0.033923,-0.020497 0.00614,-0.087382 0.05734,0.201614 0.060534,0.3416667 l 0.00247,0.1083333 h -0.494833 c -0.453005,0 -0.4999493,-0.00565 -0.5553513,-0.066871 z m 1.2194833,-0.074796 c 0.00145,-0.077917 0.00983,-0.1240062 0.018637,-0.102421 0.02647,0.064904 0.205803,-0.015921 0.22221,-0.1001491 0.00776,-0.039837 0.016152,0.02132 0.018648,0.1359034 l 0.00454,0.2083333 H 6.2150782 6.0817449 l 0.00263,-0.1416666 z m 1.3108679,0.067241 c -0.051694,-0.060588 -0.052654,-0.066027 -0.00517,-0.029252 0.032083,0.024846 0.058333,0.034 0.058333,0.020344 0,-0.013656 0.0225,-0.00616 0.05,0.016667 0.040818,0.033876 0.05,0.031926 0.05,-0.010618 0,-0.028663 0.015372,-0.061614 0.034159,-0.073226 0.018787,-0.011611 0.030037,-0.00125 0.025,0.023033 -0.0053,0.025554 0.011897,0.038003 0.040841,0.029562 0.0275,-0.00802 0.1852236,-0.020598 0.3504966,-0.027951 0.271862,-0.012094 0.3065007,-0.00673 0.3634997,0.056249 l 0.063003,0.069617 H 7.9420775 c -0.4589473,0 -0.4865373,-0.00376 -0.546833,-0.074426 z m 1.2957716,0.032759 c -0.017723,-0.022917 -0.044261,-0.064167 -0.058971,-0.091667 -0.021229,-0.039686 -0.017839,-0.041757 0.016435,-0.010042 0.033707,0.031191 0.065103,0.028623 0.1430824,-0.011702 0.080767,-0.041766 0.096499,-0.042797 0.082142,-0.00538 -0.013082,0.034092 0.00977,0.044686 0.086808,0.040235 0.057511,-0.00332 0.1908159,-0.00763 0.2962326,-0.00958 l 0.1916667,-0.00353 0.00499,-0.2083333 c 0.00275,-0.1145834 0.011087,-0.1687034 0.018533,-0.1202668 0.012776,0.083103 0.019201,0.085929 0.1139937,0.050149 0.078492,-0.029627 0.097356,-0.054127 0.086282,-0.1120578 -0.00779,-0.040777 -0.00134,-0.066209 0.014345,-0.056515 0.015685,0.00969 0.028518,0.1194151 0.028518,0.243825 0,0.3268921 -0.015952,0.3365323 -0.5568766,0.3365323 -0.3085593,0 -0.444325,-0.012108 -0.4671853,-0.041667 z m 1.1945952,-0.2 c 0.00213,-0.1329167 0.010939,-0.2143153 0.019582,-0.1808859 0.00971,0.037535 0.034765,0.053471 0.065526,0.041667 0.027396,-0.010513 0.07004,-0.019114 0.094766,-0.019114 0.02473,0 0.05146,-0.03375 0.0594,-0.075 0.0079,-0.04125 0.01649,0.04875 0.01899,0.2 l 0.0045,0.275 H 10.015078 9.8817447 Z M 6.9650782,1.2667338 c 0.036667,-0.00893 0.096667,-0.040943 0.1333333,-0.071133 0.066119,-0.054442 0.066145,-0.054276 0.00317,0.020108 -0.034925,0.04125 -0.094925,0.07326 -0.1333333,0.071133 -0.067163,-0.00372 -0.067284,-0.00449 -0.00317,-0.020108 z M 1.2125557,0.98081162 c 0.095656,-0.1066556 0.061308,-0.11553324 -0.090023,-0.0232672 l -0.1092124,0.0665867 0.049761,-0.0962279 c 0.078417,-0.15164133 0.332585,-0.35413163 0.5208176,-0.41492396 0.2461975,-0.0795129 0.6978458,-0.0673484 0.6978458,0.0187955 0,0.0180031 -0.020316,0.0249371 -0.045146,0.0154088 -0.02483,-0.009528 -0.1088614,0.0188669 -0.1867358,0.0631004 -0.077874,0.0442335 -0.1748866,0.0804245 -0.2155827,0.0804245 -0.1451236,0 -0.3846719,0.10715523 -0.5423531,0.24260653 -0.0881,0.0756799 -0.1238177,0.0970533 -0.079371,0.0474966 z"
         id="path25"
         inkscape:connector-curvature="0" />
      <path
         style="fill:#141414;stroke-width:0.03333333"
         d="M 1.3817452,3.3346188 C 1.2487465,3.3127897 1.1099763,3.2546756 0.94323514,3.1509802 L 0.78805839,3.0544765 0.86571965,2.9142591 C 0.98452834,2.69975 0.99939464,2.5568888 0.92128341,2.3803054 0.88465301,2.2974963 0.82079618,2.2116079 0.77937932,2.1894423 0.67791356,2.1351394 0.44658304,2.1433171 0.29522798,2.2065573 0.2271827,2.2349884 0.16822003,2.2543033 0.16419984,2.2494794 0.11419136,2.1894723 0.04760244,2.0006298 0.03020415,1.8694751 0.00552776,1.6834553 0.02409245,1.6566603 0.2217458,1.5930174 0.43017944,1.5259032 0.5730817,1.322142 0.55064877,1.1240418 0.54266304,1.0535219 0.39022501,0.92404182 0.31518706,0.92404182 c -0.0983898,0 -0.10814374,-0.053572 -0.0356325,-0.1957059 0.0801926,-0.1571906 0.22727613,-0.28134236 0.29992592,-0.25316459 0.0287456,0.0111492 0.11976473,0.0280995 0.20226472,0.0376673 0.12130953,0.0140687 0.17231479,0.002239 0.2666666,-0.0618458 0.1225414,-0.0832321 0.1645863,-0.1991293 0.1003281,-0.27655571 -0.05046,-0.0608008 0.06604,-0.13899833 0.251078,-0.16852983 0.1210295,-0.01931589 0.1493322,-0.00931211 0.2781539,0.09831527 0.1844254,0.1540831 0.3642597,0.16588998 0.4882907,0.0320583 0.068232,-0.0736231 0.1006732,-0.08462258 0.2013826,-0.06827969 0.1551948,0.02518463 0.2141,0.07636937 0.2141,0.18603853 0,0.11363058 0.077523,0.22333365 0.2040645,0.28877054 0.080898,0.041834 0.1218296,0.0445225 0.2141199,0.0140639 C 3.1473036,0.50823634 3.2369969,0.53861184 3.2987773,0.658082 3.3653483,0.78681627 3.3613743,0.8332433 3.2794023,0.88443593 3.2414472,0.90813953 3.1895343,0.97549773 3.1640404,1.0341208 3.1181194,1.139716 3.1176764,1.1398825 3.1163834,1.0520048 3.11552,0.99330188 3.1489644,0.93478793 3.2152704,0.8789951 3.3024984,0.8055974 3.3108173,0.7844946 3.2795654,0.7159021 3.2222118,0.59002536 3.1453764,0.55855022 2.9940481,0.59894202 2.8915812,0.62629202 2.8402129,0.62371692 2.7647805,0.58744889 2.6468312,0.53073862 2.5095787,0.3362628 2.5224048,0.24402188 2.5400262,0.11729472 2.2784186,0.03902308 2.2175252,0.15280349 2.1992475,0.18695573 2.1379429,0.23409731 2.0812928,0.25756254 1.9501297,0.31189208 1.7615876,0.26117854 1.6489385,0.1412691 1.589493,0.07799223 1.5367374,0.0575006 1.4342681,0.05788559 1.242774,0.05860506 1.1988797,0.0957489 1.2098571,0.2477847 1.2229597,0.42925566 1.1095353,0.53015482 0.87011541,0.55000939 c -0.098345,0.008156 -0.20935728,-0.001521 -0.24669388,-0.0215026 -0.0823697,-0.0440829 -0.21398609,0.0452988 -0.29370446,0.19945713 -0.0546576,0.1056961 -0.0406735,0.16274453 0.0398929,0.16274453 0.0835302,0 0.24546865,0.18631865 0.24546865,0.28242455 0,0.1891721 -0.18895286,0.4090898 -0.41581984,0.4839627 -0.10811372,0.035681 -0.11751346,0.049327 -0.11751346,0.1706018 0,0.0725 0.02241825,0.1854733 0.04981833,0.2510509 0.0392247,0.093878 0.0622613,0.1138633 0.10833332,0.093985 0.1277001,-0.055099 0.36717618,-0.091261 0.45627261,-0.068899 0.13462736,0.033789 0.27408575,0.1870804 0.31776152,0.3492799 0.020676,0.076784 0.052406,0.1304507 0.070512,0.1192605 0.05833,-0.03605 0.9361702,-0.2816385 1.0096229,-0.2824569 0.039057,-4.352e-4 0.1610121,-0.039189 0.2710121,-0.086121 0.11,-0.046931 0.23,-0.091041 0.2666666,-0.098021 0.036667,-0.00698 0.1552451,-0.043226 0.2635075,-0.080546 0.1082625,-0.03732 0.2340354,-0.067855 0.2794953,-0.067855 h 0.082654 L 3.1719868,2.024563 C 2.9966357,2.1624942 2.9797325,2.4139822 3.1255998,2.7147139 L 3.1984118,2.8648288 3.053878,2.9931752 C 2.9743845,3.0637658 2.8318845,3.1505148 2.7372114,3.1859508 L 2.5650785,3.2503798 2.5446693,3.1769308 C 2.4869162,2.9690875 2.3242929,2.7765872 2.1609077,2.7226653 1.9266515,2.6453538 1.6278572,2.8771958 1.5469613,3.1990418 c -0.021888,0.087083 -0.049266,0.1562906 -0.06084,0.153794 -0.011574,-0.0025 -0.058543,-0.010694 -0.1043761,-0.018217 z M 2.7984118,3.0947471 C 2.9404694,3.0295811 3.1154136,2.8726606 3.114568,2.811163 3.1142413,2.787311 3.105308,2.785957 3.089568,2.807373 3.055587,2.853626 2.8484118,2.9662838 2.8484118,2.9385094 c 0,-0.012448 -0.0225,-0.00396 -0.05,0.018864 -0.037797,0.031368 -0.05,0.031784 -0.05,0.0017 0,-0.024174 -0.022315,-0.017481 -0.056845,0.017049 -0.037047,0.037048 -0.061257,0.043609 -0.069514,0.01884 -0.023882,-0.071647 -0.064712,-0.00591 -0.048618,0.078281 0.019059,0.099702 0.048392,0.1025056 0.2249771,0.021501 z m 0.5999999,-1.137372 c 0.011331,-0.018333 0.027216,-0.033333 0.035301,-0.033333 0.00808,0 0.014699,0.015 0.014699,0.033333 0,0.018333 -0.015885,0.033333 -0.035301,0.033333 -0.019415,0 -0.02603,-0.015 -0.014699,-0.033333 z M 1.1180763,0.85316525 C 1.2888388,0.61335146 1.6027946,0.45737516 1.9147397,0.45737516 c 0.2034041,0 0.3670055,0.0328139 0.3670055,0.0736111 0,0.0175695 -0.01875,0.025143 -0.041667,0.0168301 -0.022917,-0.008313 -0.092249,0.005437 -0.1540708,0.0305556 -0.061822,0.0251185 -0.1414575,0.0456699 -0.1769672,0.0456699 -0.03551,0 -0.055293,0.015 -0.043962,0.0333333 0.011581,0.018739 -0.014964,0.0333333 -0.060629,0.0333333 -0.077598,0 -0.2138175,0.0476977 -0.446029,0.15617896 -0.058662,0.0274047 -0.1225176,0.0400248 -0.1419021,0.0280445 -0.019384,-0.0119802 -0.043284,-8.3167e-4 -0.05311,0.0247749 -0.00983,0.0256065 -0.038961,0.0465572 -0.064745,0.0465572 -0.03565,0 -0.031,-0.0223008 0.019413,-0.0930988 z"
         id="path23"
         inkscape:connector-curvature="0" />
    </g>
  </g>
</svg>
